<?xml version="1.0" standalone="no"?>
<!DOCTYPE svg PUBLIC "-//W3C//DTD SVG 20010904//EN"
 "http://www.w3.org/TR/2001/REC-SVG-20010904/DTD/svg10.dtd">
<svg version="1.0" xmlns="http://www.w3.org/2000/svg"
 width="1633.000000pt" height="980.000000pt" viewBox="0 0 1633.000000 980.000000"
 preserveAspectRatio="xMidYMid meet">

<g transform="translate(0.000000,980.000000) scale(0.100000,-0.100000)"
fill="#000000" stroke="none">
<path d="M13465 9540 c-8 -14 3 -30 21 -30 8 0 14 9 14 20 0 21 -24 28 -35 10z"/>
<path d="M6660 9537 c0 -4 14 -32 31 -63 25 -43 32 -69 33 -112 1 -53 -1 -57
-23 -60 -12 -2 -53 3 -90 12 -79 19 -159 26 -185 17 -12 -5 20 -16 94 -35 147
-36 160 -41 160 -66 0 -15 -23 -31 -101 -71 -56 -27 -99 -53 -96 -56 3 -3 54
11 114 31 150 50 185 53 275 26 40 -12 111 -37 157 -56 90 -36 101 -39 101
-26 0 4 -46 31 -102 60 -167 85 -184 101 -251 234 -31 63 -71 127 -87 143 -17
16 -30 26 -30 22z"/>
<path d="M11838 9488 c-4 -9 -10 -45 -13 -80 -19 -192 -40 -234 -186 -370
-116 -109 -139 -154 -34 -67 33 28 94 71 135 96 l75 47 150 6 c141 6 185 13
185 29 0 3 -23 4 -51 2 -109 -7 -189 23 -175 65 3 11 29 47 56 79 50 59 108
161 98 171 -3 3 -21 -14 -39 -38 -64 -83 -131 -157 -147 -163 -28 -11 -37 15
-42 128 -3 62 -8 104 -12 95z"/>
<path d="M13296 9464 c-29 -29 -12 -64 31 -64 19 0 43 25 43 44 0 10 -32 36
-45 36 -7 0 -21 -7 -29 -16z"/>
<path d="M3460 9435 c0 -8 5 -15 10 -15 6 0 10 7 10 15 0 8 -4 15 -10 15 -5 0
-10 -7 -10 -15z"/>
<path d="M13604 9425 c-34 -52 31 -111 76 -70 22 20 26 65 8 83 -21 21 -66 14
-84 -13z"/>
<path d="M10293 9395 c-17 -7 -49 -38 -72 -68 -44 -61 -76 -86 -136 -111 -66
-28 -73 -66 -23 -115 68 -66 212 -94 295 -57 64 29 77 64 63 178 -19 155 -54
203 -127 173z"/>
<path d="M814 9385 c-4 -9 -2 -21 4 -27 15 -15 44 -1 40 19 -4 23 -36 29 -44
8z"/>
<path d="M3344 9389 c-8 -14 21 -43 35 -35 19 12 13 46 -8 46 -11 0 -23 -5
-27 -11z"/>
<path d="M9378 9389 c-26 -14 -24 -66 2 -74 50 -16 85 30 49 66 -22 22 -27 22
-51 8z"/>
<path d="M3550 9375 c-19 -23 -8 -50 22 -53 19 -2 28 2 33 18 12 39 -29 66
-55 35z"/>
<path d="M1694 9304 c-69 -94 -178 -210 -216 -230 -14 -7 -75 -25 -135 -39
-106 -25 -233 -77 -233 -96 0 -12 -2 -12 65 11 73 25 186 27 209 4 22 -21 21
-29 -15 -104 -47 -99 -67 -152 -77 -209 -12 -65 2 -66 29 -3 42 99 115 234
130 243 31 16 48 -14 79 -135 17 -66 32 -122 35 -124 13 -13 13 12 0 123 -18
152 -18 210 -1 268 13 45 102 198 174 301 22 32 30 52 24 58 -7 7 -30 -16 -68
-68z"/>
<path d="M16037 9373 c-13 -12 -7 -41 10 -47 21 -9 46 16 37 37 -6 17 -35 23
-47 10z"/>
<path d="M4606 9344 c-20 -20 -9 -46 18 -42 25 4 34 43 12 51 -9 4 -22 -1 -30
-9z"/>
<path d="M313 9290 c-9 -25 -9 -30 3 -30 9 0 14 11 14 30 0 17 -1 30 -3 30 -1
0 -8 -13 -14 -30z"/>
<path d="M10475 9290 c-32 -62 -13 -155 43 -202 34 -28 168 -66 196 -55 34 13
11 128 -40 194 -31 40 -119 93 -156 93 -20 0 -31 -8 -43 -30z"/>
<path d="M410 9280 c0 -20 5 -30 14 -30 12 0 13 6 5 30 -6 17 -13 30 -15 30
-2 0 -4 -13 -4 -30z"/>
<path d="M15611 9269 c-16 -13 -21 -23 -14 -30 7 -7 16 -1 27 16 22 34 18 39
-13 14z"/>
<path d="M3780 9250 c0 -5 5 -10 10 -10 6 0 10 5 10 10 0 6 -4 10 -10 10 -5 0
-10 -4 -10 -10z"/>
<path d="M5210 9225 c13 -13 27 -22 31 -19 16 10 9 20 -22 31 l-32 12 23 -24z"/>
<path d="M13972 9233 c2 -10 10 -18 18 -18 22 0 18 29 -3 33 -14 3 -18 -1 -15
-15z"/>
<path d="M257 9209 c-80 -60 -74 -179 8 -179 45 0 53 18 57 116 3 73 1 79 -17
81 -11 2 -33 -7 -48 -18z"/>
<path d="M392 9218 c-16 -16 -16 -170 0 -186 36 -36 118 10 118 65 -1 83 -78
161 -118 121z"/>
<path d="M3440 9216 c0 -9 5 -16 10 -16 6 0 10 4 10 9 0 6 -4 13 -10 16 -5 3
-10 -1 -10 -9z"/>
<path d="M5407 9209 c12 -13 26 -18 33 -14 9 6 6 12 -11 21 -36 20 -46 17 -22
-7z"/>
<path d="M8235 9220 c3 -5 10 -10 16 -10 5 0 9 5 9 10 0 6 -7 10 -16 10 -8 0
-12 -4 -9 -10z"/>
<path d="M15474 9216 c-35 -16 -74 -61 -74 -86 0 -27 39 -70 63 -70 20 0 86
71 120 127 23 37 -47 56 -109 29z"/>
<path d="M15690 9210 c-8 -14 -8 -26 -2 -32 6 -6 12 0 16 17 9 35 1 43 -14 15z"/>
<path d="M15381 9201 c-17 -13 -20 -20 -12 -26 11 -6 40 20 41 38 0 10 -2 9
-29 -12z"/>
<path d="M5271 9197 c-14 -6 -26 -18 -29 -24 -2 -7 25 -42 59 -78 73 -76 93
-80 124 -23 18 35 19 40 5 65 -15 28 -90 73 -120 73 -8 0 -26 -6 -39 -13z"/>
<path d="M13437 9194 c-14 -14 -7 -35 11 -32 9 2 17 10 17 17 0 16 -18 25 -28
15z"/>
<path d="M5130 9185 c1 -6 7 -21 14 -34 9 -17 15 -20 21 -11 4 7 -1 21 -14 33
-11 12 -21 17 -21 12z"/>
<path d="M5477 9175 c-13 -13 -14 -22 -1 -76 20 -84 29 -98 81 -121 57 -25
119 -17 135 17 19 42 -49 142 -117 170 -56 23 -83 26 -98 10z"/>
<path d="M8124 9175 c-4 -9 -2 -21 4 -27 15 -15 44 -1 40 19 -4 23 -36 29 -44
8z"/>
<path d="M8327 9163 c-13 -12 -7 -51 8 -57 34 -13 66 24 44 50 -12 15 -41 19
-52 7z"/>
<path d="M15586 9098 c-51 -80 -53 -88 -28 -110 68 -60 153 9 139 112 -12 94
-50 93 -111 -2z"/>
<path d="M540 9130 c0 -20 5 -30 14 -30 12 0 13 6 5 30 -6 17 -13 30 -15 30
-2 0 -4 -13 -4 -30z"/>
<path d="M15278 9123 c-61 -51 -86 -99 -87 -169 -1 -44 9 -54 55 -54 39 0 102
37 119 70 17 33 20 116 5 154 -13 35 -49 34 -92 -1z"/>
<path d="M156 9118 c-3 -13 -1 -27 4 -32 7 -7 10 1 10 22 0 37 -5 41 -14 10z"/>
<path d="M3662 9114 c4 -21 22 -23 26 -1 2 10 -3 17 -13 17 -10 0 -15 -6 -13
-16z"/>
<path d="M5164 9084 c-19 -46 -9 -101 27 -136 15 -16 38 -28 51 -28 31 0 68
27 68 49 0 23 -99 151 -117 151 -8 0 -21 -16 -29 -36z"/>
<path d="M515 9018 c-42 -64 -51 -104 -35 -152 14 -43 69 -89 102 -84 29 4 50
47 56 114 6 75 -41 174 -82 174 -3 0 -21 -24 -41 -52z"/>
<path d="M132 9035 c-64 -81 -47 -252 25 -263 28 -4 79 42 93 84 7 19 9 50 6
67 -6 32 -72 127 -92 134 -7 2 -21 -8 -32 -22z"/>
<path d="M8556 9041 c-4 -5 -2 -12 3 -15 5 -4 12 -2 15 3 4 5 2 12 -3 15 -5 4
-12 2 -15 -3z"/>
<path d="M13790 9035 c-17 -20 -5 -45 20 -45 11 0 23 7 26 15 6 15 -11 45 -26
45 -4 0 -13 -7 -20 -15z"/>
<path d="M15718 9009 c-14 -24 -15 -29 -3 -29 8 0 17 11 21 25 9 37 1 38 -18
4z"/>
<path d="M10743 9012 c-7 -5 -3 -16 14 -37 l25 -30 -7 30 c-8 36 -16 46 -32
37z"/>
<path d="M8210 9000 c0 -5 7 -10 15 -10 8 0 15 5 15 10 0 6 -7 10 -15 10 -8 0
-15 -4 -15 -10z"/>
<path d="M10610 8988 c-13 -8 -29 -25 -34 -39 -7 -22 -1 -37 43 -101 28 -42
58 -82 67 -89 38 -31 81 48 69 126 -12 82 -85 134 -145 103z"/>
<path d="M10120 8968 c-71 -38 3 -193 121 -254 17 -8 49 -16 72 -17 l42 -2 -1
71 c-2 90 -28 153 -77 183 -44 27 -123 37 -157 19z"/>
<path d="M5140 8943 c0 -17 27 -46 33 -36 4 6 -2 18 -13 28 -11 10 -20 14 -20
8z"/>
<path d="M15645 8935 c-97 -52 -115 -75 -115 -149 0 -49 30 -96 61 -96 29 0
96 66 114 114 10 25 15 63 13 92 -3 56 -21 66 -73 39z"/>
<path d="M5493 8905 c-53 -23 -65 -73 -43 -175 16 -70 29 -96 56 -110 34 -19
68 2 110 67 24 37 49 61 89 84 63 35 69 57 29 94 -53 49 -174 70 -241 40z"/>
<path d="M8441 8910 c-16 -9 -6 -30 15 -30 15 0 20 25 6 34 -4 2 -14 1 -21 -4z"/>
<path d="M15292 8877 c-72 -30 -122 -72 -122 -102 0 -28 34 -63 70 -72 42 -10
80 -33 126 -75 69 -64 106 -41 120 75 8 67 -9 127 -45 166 -35 38 -73 40 -149
8z"/>
<path d="M5192 8846 c9 -80 83 -160 160 -172 44 -8 63 14 62 70 -2 89 -54 133
-167 144 l-60 5 5 -47z"/>
<path d="M285 8835 c-45 -46 -95 -133 -95 -167 0 -54 44 -70 136 -47 42 11 75
7 155 -17 23 -7 49 22 49 54 0 66 -79 177 -143 201 -46 18 -64 13 -102 -24z"/>
<path d="M10426 8839 c-47 -56 -26 -120 55 -163 58 -32 118 -34 144 -6 23 25
18 35 -57 125 -73 87 -99 95 -142 44z"/>
<path d="M12554 8765 c-8 -21 2 -45 19 -45 8 0 20 7 27 15 10 12 10 18 0 30
-7 8 -19 15 -27 15 -7 0 -16 -7 -19 -15z"/>
<path d="M10734 8722 c-8 -5 -2 -18 18 -42 17 -19 28 -27 24 -17 -3 11 -9 30
-12 43 -7 25 -12 28 -30 16z"/>
<path d="M2798 8708 c-8 -21 2 -38 22 -38 23 0 32 13 24 34 -7 19 -40 21 -46
4z"/>
<path d="M10387 8676 c-4 -10 6 -22 29 -35 41 -25 44 -14 5 23 -23 22 -30 24
-34 12z"/>
<path d="M10633 8639 c-10 -10 -6 -16 18 -31 39 -24 44 -20 16 15 -17 22 -25
25 -34 16z"/>
<path d="M3849 8451 c-22 -18 -24 -26 -24 -118 0 -79 4 -105 21 -137 42 -80
123 -95 241 -42 105 48 145 110 101 159 -18 21 -35 27 -80 31 -65 6 -91 19
-110 54 -34 65 -104 90 -149 53z"/>
<path d="M8889 8451 c-22 -18 -24 -26 -24 -118 0 -79 4 -105 21 -137 42 -80
123 -95 241 -42 104 47 143 107 103 159 -18 22 -30 27 -68 27 -65 1 -94 17
-141 78 -35 44 -46 52 -75 52 -19 0 -44 -9 -57 -19z"/>
<path d="M13929 8451 c-22 -18 -24 -26 -24 -118 0 -79 4 -105 21 -137 27 -52
75 -78 134 -73 96 8 230 93 230 146 0 34 -39 71 -74 71 -59 0 -96 12 -119 38
-70 79 -86 92 -115 92 -16 0 -40 -9 -53 -19z"/>
<path d="M3694 8330 c-49 -20 -69 -85 -38 -128 21 -30 40 -28 80 12 40 40 48
98 15 116 -23 12 -29 12 -57 0z"/>
<path d="M8734 8330 c-49 -20 -69 -85 -38 -128 21 -30 40 -28 80 12 40 40 48
98 15 116 -23 12 -29 12 -57 0z"/>
<path d="M13774 8330 c-49 -20 -69 -85 -38 -128 21 -30 40 -28 80 12 40 40 48
98 15 116 -23 12 -29 12 -57 0z"/>
<path d="M2251 8286 c-9 -10 -8 -16 4 -26 19 -16 41 1 32 24 -8 20 -21 20 -36
2z"/>
<path d="M6940 8250 c0 -5 7 -10 16 -10 8 0 12 5 9 10 -3 6 -10 10 -16 10 -5
0 -9 -4 -9 -10z"/>
<path d="M7830 8165 c-7 -8 -12 -26 -12 -40 0 -14 5 -32 12 -40 15 -18 71 -20
88 -3 15 15 16 53 2 79 -13 23 -72 26 -90 4z"/>
<path d="M3741 8126 c-50 -28 -67 -100 -31 -136 27 -27 44 -25 80 8 39 35 51
93 25 122 -21 23 -40 25 -74 6z"/>
<path d="M8778 8123 c-47 -29 -62 -89 -32 -131 22 -31 51 -27 90 12 40 40 46
92 16 119 -23 21 -40 21 -74 0z"/>
<path d="M13821 8126 c-47 -26 -65 -92 -35 -134 22 -31 51 -27 90 12 71 71 27
167 -55 122z"/>
<path d="M9143 8119 c-45 -17 -70 -111 -37 -143 23 -23 42 -20 75 13 20 20 29
39 29 61 0 57 -26 84 -67 69z"/>
<path d="M14183 8119 c-45 -17 -70 -111 -37 -143 22 -22 38 -20 73 10 24 20
31 34 31 61 0 60 -25 88 -67 72z"/>
<path d="M4070 8088 c-24 -40 -26 -91 -4 -112 23 -23 42 -20 75 13 49 49 36
131 -21 131 -23 0 -35 -8 -50 -32z"/>
<path d="M7034 8109 c-10 -17 13 -36 27 -22 12 12 4 33 -11 33 -5 0 -12 -5
-16 -11z"/>
<path d="M12180 8105 c0 -8 5 -15 10 -15 6 0 10 7 10 15 0 8 -4 15 -10 15 -5
0 -10 -7 -10 -15z"/>
<path d="M6772 8101 c-21 -13 -11 -55 14 -59 30 -4 48 21 34 47 -11 22 -27 26
-48 12z"/>
<path d="M2412 8051 c-23 -14 -10 -46 18 -46 20 0 25 5 25 25 0 26 -20 36 -43
21z"/>
<path d="M3864 8026 c-25 -25 -34 -43 -34 -68 0 -42 15 -58 53 -58 66 0 115
102 69 143 -28 25 -50 21 -88 -17z"/>
<path d="M8924 8049 c-44 -22 -71 -108 -42 -137 39 -39 128 17 128 81 0 54
-38 79 -86 56z"/>
<path d="M13944 8026 c-25 -25 -34 -43 -34 -68 0 -42 15 -58 53 -58 66 0 115
102 69 143 -28 25 -50 21 -88 -17z"/>
<path d="M1956 8024 c-33 -32 -8 -104 35 -104 28 0 59 31 59 59 0 51 -60 80
-94 45z"/>
<path d="M6670 7995 c0 -8 5 -15 10 -15 6 0 10 7 10 15 0 8 -4 15 -10 15 -5 0
-10 -7 -10 -15z"/>
<path d="M299 7974 c-10 -12 -9 -18 3 -31 19 -18 38 -10 38 17 0 24 -25 33
-41 14z"/>
<path d="M12274 7969 c-10 -17 13 -36 27 -22 12 12 4 33 -11 33 -5 0 -12 -5
-16 -11z"/>
<path d="M12006 7954 c-19 -19 -20 -26 -4 -42 18 -18 46 -14 58 7 7 15 6 23
-6 35 -19 20 -29 20 -48 0z"/>
<path d="M5517 7935 c-41 -39 -104 -127 -147 -208 -84 -158 -108 -320 -60
-407 20 -35 38 -51 84 -74 53 -27 69 -30 190 -34 183 -6 446 33 404 59 -7 5
-80 9 -163 9 -210 0 -321 30 -313 83 4 29 134 132 330 262 86 58 159 109 163
115 15 25 -6 20 -50 -10 -44 -30 -198 -115 -394 -216 -130 -67 -151 -60 -151
51 0 113 31 208 111 343 17 28 29 52 27 52 -2 0 -16 -11 -31 -25z"/>
<path d="M6880 7910 c0 -5 5 -10 10 -10 6 0 10 5 10 10 0 6 -4 10 -10 10 -5 0
-10 -4 -10 -10z"/>
<path d="M6684 7895 c-4 -9 -2 -21 4 -27 15 -15 44 -1 40 19 -4 23 -36 29 -44
8z"/>
<path d="M15409 7820 c-84 -142 -118 -324 -74 -399 32 -53 67 -74 136 -79 86
-6 254 22 352 60 32 13 37 33 5 24 -13 -3 -81 -9 -153 -12 -140 -7 -185 2
-185 34 0 21 150 170 258 256 65 52 85 76 65 76 -4 0 -18 -11 -32 -24 -15 -13
-57 -45 -96 -71 -38 -26 -97 -67 -130 -90 -126 -89 -149 -89 -160 -2 -9 69 8
156 45 234 16 35 25 63 20 63 -5 0 -28 -31 -51 -70z"/>
<path d="M1793 7864 c-8 -21 13 -42 28 -27 13 13 5 43 -11 43 -6 0 -13 -7 -17
-16z"/>
<path d="M11910 7855 c0 -8 5 -15 10 -15 6 0 10 7 10 15 0 8 -4 15 -10 15 -5
0 -10 -7 -10 -15z"/>
<path d="M2807 7733 c-13 -38 -35 -113 -47 -168 -12 -55 -27 -109 -33 -120
-18 -35 -78 -108 -156 -187 -41 -43 -72 -80 -69 -84 4 -3 54 33 112 80 155
126 178 134 309 111 45 -8 93 -15 107 -14 l25 0 -25 14 c-14 8 -53 24 -87 35
-34 12 -67 28 -73 36 -20 23 10 57 97 110 43 26 89 54 103 62 13 9 20 17 14
19 -20 7 -107 -27 -175 -67 -57 -35 -72 -40 -84 -30 -27 22 -15 160 20 253 4
9 3 17 -3 17 -5 0 -21 -30 -35 -67z"/>
<path d="M12110 7770 c0 -5 7 -10 15 -10 8 0 15 5 15 10 0 6 -7 10 -15 10 -8
0 -15 -4 -15 -10z"/>
<path d="M12740 7732 c0 -27 10 -86 21 -132 20 -78 20 -84 5 -96 -28 -20 -118
12 -213 78 -24 16 -43 25 -43 20 0 -22 84 -83 237 -171 60 -35 80 -53 126
-119 30 -42 71 -110 91 -149 20 -40 41 -73 47 -73 6 0 9 3 7 8 -1 4 -27 67
-57 141 -66 166 -66 200 -3 321 42 81 55 125 29 98 -7 -7 -32 -39 -56 -71 -46
-63 -65 -76 -89 -60 -18 11 -46 87 -68 186 -9 37 -20 67 -25 67 -5 0 -9 -22
-9 -48z"/>
<path d="M11924 7755 c-4 -9 -2 -21 4 -27 15 -15 44 -1 40 19 -4 23 -36 29
-44 8z"/>
<path d="M1000 7735 c0 -11 7 -55 15 -98 18 -95 20 -218 3 -235 -29 -29 -47
-16 -235 171 -73 72 -135 128 -139 124 -4 -3 16 -30 44 -59 82 -87 242 -294
242 -313 0 -31 -32 -40 -139 -39 -86 0 -117 5 -164 23 -32 13 -61 21 -63 18
-9 -9 158 -86 221 -102 88 -22 196 -20 246 6 46 23 78 81 79 141 0 81 -61 320
-94 363 -15 20 -15 20 -16 0z"/>
<path d="M2135 7720 c-4 -7 -3 -16 3 -22 14 -14 45 -2 40 15 -6 16 -34 21 -43
7z"/>
<path d="M10777 7706 c-58 -16 -104 -57 -118 -106 -20 -66 25 -219 107 -366
63 -113 70 -98 19 49 -55 164 -59 237 -11 237 28 0 116 -56 264 -168 62 -47
115 -82 119 -79 3 4 -7 17 -23 29 -36 29 -204 179 -262 235 -72 69 -50 103 83
125 62 10 165 2 221 -18 14 -5 16 -4 9 4 -6 7 -44 23 -85 37 -93 32 -249 42
-323 21z"/>
<path d="M1828 7699 c-34 -19 -16 -79 23 -79 21 0 49 26 49 45 0 17 -27 45
-43 45 -7 0 -20 -5 -29 -11z"/>
<path d="M10146 7589 c-30 -24 -34 -59 -8 -82 38 -34 102 -9 102 39 0 27 -12
41 -42 53 -22 8 -31 6 -52 -10z"/>
<path d="M7486 7592 c-3 -6 38 -35 92 -65 190 -108 209 -131 237 -283 23 -122
35 -128 35 -18 0 151 21 157 164 44 49 -38 93 -70 98 -70 20 0 -61 95 -119
141 -35 27 -63 55 -63 63 0 33 82 64 193 73 48 4 73 9 65 14 -20 13 -114 11
-247 -7 l-122 -15 -81 27 c-44 14 -115 43 -157 63 -42 20 -79 37 -83 39 -3 2
-9 -1 -12 -6z"/>
<path d="M14580 7533 c-24 -17 -27 -65 -4 -87 20 -20 68 -21 84 -1 16 19 16
61 1 79 -17 21 -58 25 -81 9z"/>
<path d="M9632 7461 c-21 -13 -10 -46 16 -49 27 -4 40 22 22 43 -14 17 -20 18
-38 6z"/>
<path d="M8703 6993 c-18 -7 -16 -43 2 -43 18 0 31 28 19 39 -5 5 -15 6 -21 4z"/>
<path d="M6794 6966 c-9 -24 4 -48 23 -44 12 2 18 12 18 28 0 29 -32 41 -41
16z"/>
<path d="M13727 6964 c-14 -14 -7 -35 11 -32 9 2 17 10 17 17 0 16 -18 25 -28
15z"/>
<path d="M8965 6890 c-37 -41 24 -97 63 -58 18 18 14 56 -7 68 -27 14 -35 13
-56 -10z"/>
<path d="M3620 6874 c0 -8 5 -12 10 -9 6 3 10 10 10 16 0 5 -4 9 -10 9 -5 0
-10 -7 -10 -16z"/>
<path d="M13974 6882 c-35 -24 -15 -76 27 -70 18 2 25 10 27 32 5 37 -25 58
-54 38z"/>
<path d="M8281 6846 c-16 -20 -3 -46 24 -46 13 0 26 7 29 16 7 19 -10 44 -29
44 -7 0 -18 -6 -24 -14z"/>
<path d="M10254 6849 c-3 -6 1 -18 10 -27 15 -15 17 -15 32 0 19 19 11 38 -16
38 -10 0 -22 -5 -26 -11z"/>
<path d="M15294 6849 c-3 -6 1 -18 9 -27 13 -12 19 -13 31 -3 8 7 12 19 9 27
-6 17 -39 19 -49 3z"/>
<path d="M13360 6835 c-16 -19 -6 -45 19 -45 23 0 35 28 20 46 -15 18 -24 18
-39 -1z"/>
<path d="M3780 6825 c-10 -12 -10 -18 0 -29 16 -20 42 -8 38 17 -4 26 -21 32
-38 12z"/>
<path d="M11883 6824 c-3 -8 -1 -20 5 -26 16 -16 42 -2 42 22 0 24 -38 28 -47
4z"/>
<path d="M367 6803 c-15 -14 -7 -43 12 -43 24 0 33 13 25 34 -6 16 -25 21 -37
9z"/>
<path d="M3374 6799 c-10 -17 13 -36 27 -22 12 12 4 33 -11 33 -5 0 -12 -5
-16 -11z"/>
<path d="M10360 6770 c0 -5 4 -10 9 -10 6 0 13 5 16 10 3 6 -1 10 -9 10 -9 0
-16 -4 -16 -10z"/>
<path d="M15400 6770 c0 -5 5 -10 10 -10 6 0 10 5 10 10 0 6 -4 10 -10 10 -5
0 -10 -4 -10 -10z"/>
<path d="M470 6716 c0 -9 5 -16 10 -16 6 0 10 4 10 9 0 6 -4 13 -10 16 -5 3
-10 -1 -10 -9z"/>
<path d="M3603 6704 c-6 -17 6 -45 23 -51 5 -2 19 3 29 11 16 12 18 18 9 33
-15 24 -52 29 -61 7z"/>
<path d="M3750 6700 c0 -5 7 -10 15 -10 8 0 15 5 15 10 0 6 -7 10 -15 10 -8 0
-15 -4 -15 -10z"/>
<path d="M5465 6700 c-7 -12 2 -30 16 -30 5 0 9 9 9 20 0 21 -15 27 -25 10z"/>
<path d="M8670 6695 c-20 -24 -15 -67 10 -87 30 -24 46 -23 76 7 25 26 26 52
2 83 -14 17 -73 15 -88 -3z"/>
<path d="M10150 6700 c0 -5 5 -10 10 -10 6 0 10 5 10 10 0 6 -4 10 -10 10 -5
0 -10 -4 -10 -10z"/>
<path d="M13702 6698 c-30 -30 -2 -88 43 -88 23 0 55 33 55 57 0 35 -71 58
-98 31z"/>
<path d="M15190 6700 c0 -5 5 -10 10 -10 6 0 10 5 10 10 0 6 -4 10 -10 10 -5
0 -10 -4 -10 -10z"/>
<path d="M8924 6686 c-7 -19 3 -36 22 -36 10 0 14 8 12 22 -4 26 -26 36 -34
14z"/>
<path d="M13930 6680 c0 -15 5 -20 18 -18 9 2 17 10 17 18 0 8 -8 16 -17 18
-13 2 -18 -3 -18 -18z"/>
<path d="M10316 6665 c-20 -21 -5 -55 25 -55 24 0 36 27 22 48 -14 23 -29 25
-47 7z"/>
<path d="M15355 6664 c-18 -18 -16 -33 7 -47 35 -22 66 21 36 51 -16 16 -23
15 -43 -4z"/>
<path d="M256 6652 c-3 -6 -1 -14 5 -17 15 -10 25 3 12 16 -7 7 -13 7 -17 1z"/>
<path d="M5107 6644 c-4 -4 -7 -16 -7 -26 0 -14 6 -19 23 -16 14 2 22 10 22
23 0 20 -25 32 -38 19z"/>
<path d="M3396 6622 c-3 -6 -1 -14 5 -17 15 -10 25 3 12 16 -7 7 -13 7 -17 1z"/>
<path d="M420 6605 c-18 -22 -8 -50 19 -50 32 0 49 28 32 49 -17 20 -35 20
-51 1z"/>
<path d="M5676 6584 c-9 -8 -16 -19 -16 -24 0 -13 30 -40 44 -40 35 0 48 53
17 70 -25 13 -27 13 -45 -6z"/>
<path d="M13384 6559 c-10 -17 13 -36 27 -22 12 12 4 33 -11 33 -5 0 -12 -5
-16 -11z"/>
<path d="M1234 6546 c-9 -24 4 -48 23 -44 12 2 18 12 18 28 0 29 -32 41 -41
16z"/>
<path d="M8310 6531 c0 -15 6 -21 21 -21 14 0 19 5 17 17 -5 26 -38 29 -38 4z"/>
<path d="M5402 6458 c-18 -18 -15 -52 6 -71 25 -22 45 -21 67 3 27 30 10 74
-30 78 -17 2 -36 -3 -43 -10z"/>
<path d="M10147 6455 c-8 -18 11 -31 25 -17 11 11 3 32 -12 32 -4 0 -10 -7
-13 -15z"/>
<path d="M15184 6459 c-10 -17 13 -36 27 -22 12 12 4 33 -11 33 -5 0 -12 -5
-16 -11z"/>
<path d="M5614 6419 c-10 -17 13 -36 27 -22 12 12 4 33 -11 33 -5 0 -12 -5
-16 -11z"/>
<path d="M250 6396 c0 -8 4 -17 9 -20 11 -7 33 18 24 27 -12 12 -33 7 -33 -7z"/>
<path d="M10320 6400 c0 -5 5 -10 10 -10 6 0 10 5 10 10 0 6 -4 10 -10 10 -5
0 -10 -4 -10 -10z"/>
<path d="M15360 6400 c0 -5 4 -10 9 -10 6 0 13 5 16 10 3 6 -1 10 -9 10 -9 0
-16 -4 -16 -10z"/>
<path d="M5084 6379 c-10 -17 13 -36 27 -22 12 12 4 33 -11 33 -5 0 -12 -5
-16 -11z"/>
<path d="M426 6351 c-4 -5 -2 -12 3 -15 5 -4 12 -2 15 3 4 5 2 12 -3 15 -5 4
-12 2 -15 -3z"/>
<path d="M2000 6237 c0 -7 13 -67 30 -133 38 -153 62 -287 54 -308 -16 -42
-108 4 -227 113 -71 65 -109 90 -91 59 47 -81 218 -254 284 -288 72 -37 141
-22 194 41 66 78 117 229 115 344 l-1 70 -14 -65 c-18 -82 -63 -174 -109 -222
-42 -44 -59 -47 -80 -15 -17 27 -135 365 -135 389 0 9 -4 20 -10 23 -5 3 -10
0 -10 -8z"/>
<path d="M7040 6233 c0 -10 9 -50 20 -88 31 -108 71 -325 64 -347 -15 -47
-111 2 -236 119 -62 58 -100 81 -82 51 47 -81 218 -254 284 -288 72 -37 141
-22 194 41 66 78 117 233 115 348 l-1 66 -19 -77 c-23 -96 -48 -147 -101 -204
-46 -50 -61 -54 -82 -21 -18 28 -123 324 -132 372 -7 38 -24 58 -24 28z"/>
<path d="M12080 6234 c0 -10 11 -60 25 -109 32 -116 66 -310 58 -331 -4 -12
-14 -15 -39 -11 -42 7 -101 48 -193 132 -65 60 -103 83 -85 53 47 -81 218
-254 284 -288 72 -37 141 -22 194 41 66 78 117 233 115 348 l-1 66 -14 -65
c-18 -83 -63 -175 -110 -222 -65 -68 -71 -60 -160 203 -36 107 -68 196 -70
198 -2 2 -4 -4 -4 -15z"/>
<path d="M12987 6023 c-15 -14 -7 -63 12 -73 39 -20 82 22 61 60 -10 20 -58
28 -73 13z"/>
<path d="M3070 6005 c-11 -13 -11 -19 3 -32 21 -21 49 -9 45 19 -4 28 -30 35
-48 13z"/>
<path d="M13873 5975 c16 -9 31 -14 35 -11 8 9 0 14 -33 21 l-30 6 28 -16z"/>
<path d="M13958 5979 c-10 -5 -18 -15 -18 -22 0 -22 73 -118 101 -133 75 -38
201 16 170 74 -13 25 -51 57 -88 76 -36 18 -138 21 -165 5z"/>
<path d="M10843 5933 c-34 -17 -53 -49 -53 -91 0 -59 62 -72 111 -23 36 37 42
104 10 121 -25 13 -29 12 -68 -7z"/>
<path d="M13771 5928 c-35 -19 -48 -43 -33 -61 7 -8 46 -29 87 -47 73 -32 76
-32 95 -15 25 23 26 75 2 105 -23 28 -113 39 -151 18z"/>
<path d="M13680 5915 c32 -18 40 -18 40 0 0 10 -10 15 -32 15 l-33 -1 25 -14z"/>
<path d="M10615 5875 c-18 -17 -25 -35 -25 -63 0 -43 14 -62 46 -62 49 0 104
99 74 135 -19 23 -68 18 -95 -10z"/>
<path d="M10960 5833 c-57 -52 -48 -135 15 -135 38 0 85 51 85 93 0 71 -46 90
-100 42z"/>
<path d="M15634 5841 c-68 -31 -65 -95 8 -132 84 -43 180 -7 157 59 -13 39
-57 78 -94 86 -19 4 -45 -1 -71 -13z"/>
<path d="M13637 5829 c12 -13 26 -18 33 -14 9 6 6 12 -11 21 -36 20 -46 17
-22 -7z"/>
<path d="M15317 5819 c-35 -20 -49 -74 -41 -159 7 -90 3 -101 -70 -178 -39
-42 -50 -60 -50 -86 0 -48 27 -83 74 -97 90 -27 290 43 354 123 37 47 46 124
22 182 -25 60 -104 164 -148 197 -44 31 -105 39 -141 18z"/>
<path d="M13697 5803 c-12 -11 -8 -63 8 -93 34 -66 106 -90 145 -48 39 42 26
62 -71 116 -58 33 -71 37 -82 25z"/>
<path d="M440 5763 c-14 -9 -30 -24 -37 -33 -16 -20 -16 -83 -1 -98 40 -40
128 17 128 82 0 60 -41 83 -90 49z"/>
<path d="M4571 5762 c-8 -15 -7 -23 4 -32 21 -18 47 -4 43 22 -4 29 -34 35
-47 10z"/>
<path d="M14125 5761 c-55 -25 -88 -64 -87 -101 1 -38 47 -124 90 -167 32 -32
64 -41 89 -25 16 10 43 75 43 102 0 26 25 75 56 113 50 60 17 97 -86 97 -42 0
-79 -7 -105 -19z"/>
<path d="M215 5708 c-46 -41 -33 -128 19 -128 27 0 72 45 81 82 16 62 -47 91
-100 46z"/>
<path d="M10667 5708 c-72 -25 -127 -74 -127 -114 1 -51 33 -77 110 -88 55 -9
68 -18 104 -79 32 -56 65 -73 104 -55 42 20 56 62 55 154 -1 93 -18 140 -65
179 -37 31 -98 32 -181 3z"/>
<path d="M5811 5703 c-41 -28 -19 -127 34 -151 67 -30 104 62 50 126 -30 36
-57 44 -84 25z"/>
<path d="M8041 5686 c-15 -18 -8 -44 14 -52 21 -9 47 15 43 40 -4 26 -40 33
-57 12z"/>
<path d="M561 5664 c-59 -49 -51 -134 13 -134 62 0 107 83 76 141 -15 27 -53
24 -89 -7z"/>
<path d="M5660 5650 c-32 -32 -27 -94 9 -131 35 -34 54 -36 81 -9 33 33 27 85
-14 126 -39 39 -49 41 -76 14z"/>
<path d="M13729 5617 c13 -15 28 -24 32 -21 14 8 10 21 -8 28 -10 3 -25 9 -33
12 -8 4 -4 -5 9 -19z"/>
<path d="M10991 5603 c-38 -35 -48 -74 -26 -97 35 -35 98 -14 121 39 32 77
-32 116 -95 58z"/>
<path d="M13875 5623 c-52 -12 -85 -26 -85 -36 0 -31 55 -90 103 -113 56 -26
135 -32 155 -12 30 30 -1 116 -53 148 -30 19 -74 24 -120 13z"/>
<path d="M6004 5585 c-31 -48 0 -145 47 -145 25 0 59 47 59 82 0 32 -47 88
-74 88 -9 0 -23 -11 -32 -25z"/>
<path d="M15736 5579 c-73 -58 24 -173 131 -156 82 14 97 75 34 138 -35 35
-44 39 -88 39 -36 0 -58 -6 -77 -21z"/>
<path d="M260 5535 c-76 -28 -120 -71 -120 -115 0 -35 28 -67 67 -75 100 -21
115 -30 155 -104 33 -60 102 -61 133 0 19 35 24 120 12 192 -6 35 -18 58 -46
87 -34 36 -42 40 -87 39 -27 0 -78 -11 -114 -24z"/>
<path d="M3424 5496 c23 -19 32 -20 41 -6 3 6 0 10 -9 10 -8 0 -23 3 -33 6
-16 5 -16 4 1 -10z"/>
<path d="M3515 5497 c-27 -20 -14 -56 43 -116 45 -48 51 -51 98 -51 62 0 114
29 114 63 0 30 -43 74 -95 98 -47 22 -133 25 -160 6z"/>
<path d="M5803 5464 c-39 -19 -59 -48 -84 -122 -27 -80 -25 -146 6 -177 36
-37 66 -31 131 21 51 42 61 46 103 44 86 -4 106 -1 124 21 33 41 14 96 -55
152 -86 69 -166 91 -225 61z"/>
<path d="M5566 5454 c-25 -25 -21 -90 9 -119 29 -30 70 -33 85 -6 19 37 12 81
-19 112 -33 33 -52 36 -75 13z"/>
<path d="M585 5427 c-22 -22 -35 -45 -35 -61 0 -49 74 -63 116 -21 20 20 25
33 22 68 -3 39 -5 42 -36 45 -26 3 -39 -3 -67 -31z"/>
<path d="M3340 5453 c-27 -11 -50 -36 -50 -55 0 -14 20 -29 76 -54 41 -19 83
-34 92 -32 25 5 46 50 38 81 -3 15 -18 34 -31 43 -27 17 -100 28 -125 17z"/>
<path d="M3235 5435 c20 -16 37 -16 36 0 0 5 -13 10 -28 12 -27 3 -27 3 -8
-12z"/>
<path d="M15666 5369 c-31 -25 -34 -60 -6 -99 42 -59 152 -68 197 -15 32 36
29 51 -16 96 -35 36 -43 39 -93 39 -41 0 -62 -5 -82 -21z"/>
<path d="M9132 5370 c-69 -16 -67 -42 11 -125 46 -48 58 -55 91 -55 49 0 105
27 119 57 9 20 6 28 -19 54 -54 57 -133 84 -202 69z"/>
<path d="M3180 5361 c0 -13 36 -42 43 -34 12 12 8 20 -18 31 -14 6 -25 8 -25
3z"/>
<path d="M9010 5355 c32 -18 40 -18 40 0 0 10 -10 15 -32 15 l-33 -1 25 -14z"/>
<path d="M3251 5308 c-8 -24 -2 -59 18 -97 30 -55 109 -67 143 -21 11 15 16
33 12 43 -5 14 -140 97 -158 97 -4 0 -10 -10 -15 -22z"/>
<path d="M8894 5297 c-40 -35 -27 -53 71 -97 l77 -34 19 23 c24 30 24 72 0
102 -14 18 -31 23 -78 27 -53 4 -63 1 -89 -21z"/>
<path d="M8820 5295 c32 -18 40 -18 40 0 0 10 -10 15 -32 15 l-33 -1 25 -14z"/>
<path d="M3673 5275 c-65 -33 -93 -80 -76 -126 23 -60 75 -135 109 -158 l35
-24 27 20 c15 11 31 35 35 54 5 19 12 50 18 70 5 19 25 56 45 82 24 31 34 52
30 65 -16 48 -140 58 -223 17z"/>
<path d="M15397 5252 c-55 -61 35 -172 125 -156 67 13 84 51 48 109 -36 59
-138 86 -173 47z"/>
<path d="M8777 5209 c12 -13 26 -18 33 -14 9 6 6 12 -11 21 -36 20 -46 17 -22
-7z"/>
<path d="M8837 5183 c-12 -11 -8 -63 8 -93 36 -69 107 -91 144 -44 34 44 27
59 -50 103 -70 41 -90 47 -102 34z"/>
<path d="M9322 5160 c-94 -14 -159 -79 -141 -142 22 -78 103 -178 144 -178 30
0 63 41 70 89 7 42 36 105 66 143 53 65 -12 105 -139 88z"/>
<path d="M3289 5137 c13 -15 28 -24 32 -21 14 8 11 13 -23 30 l-33 17 24 -26z"/>
<path d="M3435 5143 c-66 -15 -85 -25 -85 -47 0 -28 63 -90 112 -111 55 -23
135 -20 148 5 21 39 -17 118 -70 145 -28 15 -64 17 -105 8z"/>
<path d="M8860 5015 c0 -10 39 -43 44 -37 11 10 6 19 -19 30 -14 6 -25 9 -25
7z"/>
<path d="M8980 4997 c-52 -14 -58 -29 -31 -74 26 -42 97 -82 158 -90 90 -10
114 26 73 107 -34 66 -96 84 -200 57z"/>
<path d="M11671 4861 c-26 -26 -27 -62 -3 -84 41 -38 110 -1 97 51 -8 34 -13
39 -47 47 -19 5 -32 1 -47 -14z"/>
<path d="M10424 4855 c-14 -37 26 -69 53 -42 22 22 8 57 -23 57 -14 0 -27 -7
-30 -15z"/>
<path d="M6660 4813 c0 -6 24 -51 53 -100 28 -49 67 -121 86 -161 29 -59 32
-73 21 -86 -18 -23 -27 -21 -162 29 -67 25 -129 44 -137 43 -16 -3 16 -23 179
-111 131 -70 172 -112 229 -231 27 -55 66 -147 87 -203 22 -57 45 -103 52
-103 18 0 15 21 -11 92 -32 84 -77 284 -77 339 0 16 21 82 46 145 50 128 81
252 70 280 -6 14 -15 -1 -35 -61 -30 -90 -69 -157 -106 -181 -37 -24 -66 -5
-106 70 -18 33 -49 86 -70 116 -40 60 -119 141 -119 123z"/>
<path d="M14594 4806 c-8 -21 3 -36 27 -36 15 0 20 6 17 22 -4 27 -35 37 -44
14z"/>
<path d="M12286 4629 c-13 -127 -29 -209 -42 -220 -20 -16 -37 1 -101 100 -30
46 -57 81 -60 78 -3 -3 18 -55 46 -115 62 -135 72 -177 60 -253 -9 -56 -51
-227 -64 -261 -5 -12 -2 -18 8 -18 9 0 20 22 32 63 9 34 37 103 60 154 l44 92
98 64 c54 35 116 83 138 106 43 45 39 54 -9 17 -70 -53 -148 -81 -178 -65 -19
10 -20 17 -13 87 9 96 7 200 -4 219 -5 10 -10 -6 -15 -48z"/>
<path d="M8210 4601 c0 -15 6 -21 21 -21 14 0 19 5 17 17 -5 26 -38 29 -38 4z"/>
<path d="M1800 4558 c0 -70 -28 -220 -44 -236 -13 -13 -17 -11 -40 13 -14 15
-39 50 -55 79 -69 118 -86 115 -29 -4 51 -109 78 -185 78 -224 0 -17 -14 -89
-31 -161 -17 -71 -33 -140 -36 -152 -3 -13 -1 -23 5 -23 6 0 22 37 37 83 14
45 44 118 68 161 40 75 47 83 122 129 76 46 175 131 175 150 0 5 -18 -5 -39
-22 -49 -39 -118 -70 -153 -71 -41 0 -48 23 -36 121 11 88 4 199 -13 199 -5 0
-9 -19 -9 -42z"/>
<path d="M8037 4532 c-10 -10 -17 -24 -17 -30 0 -15 29 -42 45 -42 18 0 45 27
45 45 0 17 -27 45 -44 45 -7 0 -20 -8 -29 -18z"/>
<path d="M8360 4500 c-24 -24 -25 -38 -4 -68 19 -27 64 -29 87 -4 21 23 21 41
1 70 -19 28 -57 29 -84 2z"/>
<path d="M3460 4460 c0 -5 5 -10 10 -10 6 0 10 5 10 10 0 6 -4 10 -10 10 -5 0
-10 -4 -10 -10z"/>
<path d="M13540 4460 c0 -5 5 -10 10 -10 6 0 10 5 10 10 0 6 -4 10 -10 10 -5
0 -10 -4 -10 -10z"/>
<path d="M3346 4414 c-8 -21 1 -34 24 -34 19 0 30 17 23 38 -7 17 -40 15 -47
-4z"/>
<path d="M13428 4418 c-8 -21 2 -38 22 -38 19 0 30 17 23 38 -3 6 -13 12 -23
12 -10 0 -20 -6 -22 -12z"/>
<path d="M2516 4404 c-25 -24 -20 -71 9 -90 29 -19 60 -11 81 21 24 37 -6 85
-53 85 -12 0 -29 -7 -37 -16z"/>
<path d="M3557 4409 c-39 -22 -4 -79 35 -58 10 5 18 18 18 29 0 25 -30 41 -53
29z"/>
<path d="M13627 4404 c-13 -14 -7 -43 12 -53 24 -13 55 8 50 35 -4 19 -48 32
-62 18z"/>
<path d="M419 4334 c-11 -30 -3 -46 11 -24 10 16 13 50 5 50 -3 0 -10 -12 -16
-26z"/>
<path d="M15272 4335 c6 -13 15 -22 19 -19 9 5 -11 44 -23 44 -4 0 -3 -11 4
-25z"/>
<path d="M521 4323 c-1 -18 4 -33 9 -33 12 0 12 17 0 45 -7 17 -9 15 -9 -12z"/>
<path d="M5355 4319 c-4 -12 -2 -26 4 -32 8 -8 11 -2 11 21 0 37 -6 41 -15 11z"/>
<path d="M5450 4305 c0 -26 4 -33 14 -29 11 4 12 12 4 35 -13 38 -18 37 -18
-6z"/>
<path d="M15180 4302 c0 -24 4 -30 15 -26 12 5 12 10 3 27 -16 33 -18 33 -18
-1z"/>
<path d="M8734 4299 c-8 -14 11 -33 25 -25 6 4 11 14 11 22 0 16 -26 19 -36 3z"/>
<path d="M15293 4289 c-19 -19 -16 -33 21 -115 29 -62 39 -74 58 -74 30 0 66
32 74 65 16 65 -110 167 -153 124z"/>
<path d="M3780 4275 c0 -8 5 -15 10 -15 6 0 10 7 10 15 0 8 -4 15 -10 15 -5 0
-10 -7 -10 -15z"/>
<path d="M13860 4275 c0 -8 5 -15 10 -15 6 0 10 7 10 15 0 8 -4 15 -10 15 -5
0 -10 -7 -10 -15z"/>
<path d="M15451 4256 c7 -15 17 -22 26 -19 11 5 11 9 -3 24 -24 26 -36 24 -23
-5z"/>
<path d="M363 4248 c-33 -24 -63 -75 -63 -107 0 -31 39 -71 68 -71 15 0 32 4
38 8 13 8 35 157 27 178 -8 20 -34 17 -70 -8z"/>
<path d="M496 4262 c-3 -5 -6 -48 -7 -96 -2 -95 3 -106 52 -106 79 0 95 112
26 188 -20 22 -61 30 -71 14z"/>
<path d="M5312 4243 c-58 -28 -88 -104 -61 -154 20 -39 93 -46 103 -10 3 9 8
50 11 92 8 87 0 98 -53 72z"/>
<path d="M5431 4246 c-8 -9 -11 -46 -9 -103 l3 -88 40 -3 c74 -5 105 52 71
132 -14 34 -59 76 -81 76 -7 0 -18 -6 -24 -14z"/>
<path d="M8175 4250 c-10 -16 16 -43 28 -31 11 11 2 41 -12 41 -5 0 -13 -5
-16 -10z"/>
<path d="M3440 4240 c0 -5 5 -10 10 -10 6 0 10 5 10 10 0 6 -4 10 -10 10 -5 0
-10 -4 -10 -10z"/>
<path d="M13520 4240 c0 -5 5 -10 10 -10 6 0 10 5 10 10 0 6 -4 10 -10 10 -5
0 -10 -4 -10 -10z"/>
<path d="M15176 4219 c-36 -42 -37 -125 -3 -157 27 -25 65 -28 92 -8 18 13 19
18 7 63 -18 64 -49 133 -61 133 -5 0 -21 -14 -35 -31z"/>
<path d="M15486 4193 c-3 -10 -8 -43 -11 -73 -10 -89 36 -153 118 -167 63 -10
82 28 56 120 -23 84 -147 175 -163 120z"/>
<path d="M643 4172 c1 -19 8 -32 15 -32 9 0 11 7 7 23 -12 37 -25 43 -22 9z"/>
<path d="M262 4165 c-11 -23 -11 -30 0 -36 14 -9 22 16 16 48 -2 12 -7 9 -16
-12z"/>
<path d="M5580 4163 c0 -18 5 -33 10 -33 13 0 13 30 0 50 -7 11 -10 7 -10 -17z"/>
<path d="M5193 4140 c-9 -25 -9 -30 3 -30 9 0 14 11 14 30 0 17 -1 30 -3 30
-1 0 -8 -13 -14 -30z"/>
<path d="M3665 4150 c-7 -12 2 -30 16 -30 12 0 12 27 0 35 -5 3 -12 1 -16 -5z"/>
<path d="M13745 4150 c-7 -12 2 -30 16 -30 12 0 12 27 0 35 -5 3 -12 1 -16 -5z"/>
<path d="M10593 4111 c-12 -11 -18 -23 -14 -30 6 -9 13 -4 25 14 22 33 18 39
-11 16z"/>
<path d="M640 4088 c-11 -12 -32 -46 -46 -74 -23 -48 -24 -56 -13 -94 14 -45
68 -100 99 -100 43 0 79 108 60 179 -11 42 -48 102 -67 108 -6 2 -21 -6 -33
-19z"/>
<path d="M15110 4078 c0 -29 3 -36 15 -32 18 7 18 12 0 44 l-14 25 -1 -37z"/>
<path d="M232 4072 c-34 -46 -46 -114 -33 -169 26 -103 65 -119 125 -53 34 38
42 63 36 115 -3 29 -72 129 -91 133 -10 2 -26 -10 -37 -26z"/>
<path d="M8544 4085 c-9 -23 3 -45 25 -45 10 0 21 7 25 15 8 23 -4 45 -25 45
-11 0 -22 -7 -25 -15z"/>
<path d="M5568 4068 c-33 -51 -58 -109 -58 -136 0 -37 36 -91 78 -115 31 -19
34 -19 52 -2 39 36 52 138 25 202 -31 73 -70 93 -97 51z"/>
<path d="M5171 4067 c-22 -27 -41 -88 -41 -131 0 -55 25 -123 51 -137 28 -14
70 11 97 59 32 57 28 89 -18 160 -40 63 -66 77 -89 49z"/>
<path d="M10672 4055 c-14 -31 -15 -35 -3 -35 9 0 25 49 18 56 -2 2 -9 -7 -15
-21z"/>
<path d="M10444 4051 c-36 -22 -64 -58 -64 -82 0 -26 39 -69 64 -69 28 0 118
114 114 145 -4 29 -72 32 -114 6z"/>
<path d="M10361 4041 c-17 -13 -20 -20 -12 -26 11 -6 40 20 41 38 0 10 -2 9
-29 -12z"/>
<path d="M15131 4011 c-14 -25 -14 -75 0 -126 13 -47 86 -125 118 -125 45 0
76 99 51 164 -9 25 -95 88 -137 101 -16 4 -25 0 -32 -14z"/>
<path d="M10587 3973 c-13 -21 -35 -57 -48 -81 l-24 -43 24 -20 c25 -21 71
-25 101 -9 38 20 53 126 24 168 -23 33 -50 27 -77 -15z"/>
<path d="M10275 3971 c-16 -10 -40 -29 -52 -42 -39 -43 -66 -145 -45 -175 22
-32 94 -20 144 25 28 25 32 36 36 92 7 110 -19 140 -83 100z"/>
<path d="M15404 3939 c-41 -12 -63 -59 -71 -148 -7 -82 0 -117 28 -131 26 -15
78 2 109 35 24 26 81 50 141 60 83 13 39 108 -76 168 -42 21 -94 28 -131 16z"/>
<path d="M416 3898 c-32 -18 -64 -59 -96 -122 -35 -70 -36 -80 -10 -106 23
-23 60 -25 124 -8 37 10 54 9 102 -4 82 -23 100 -11 94 62 -5 57 -65 142 -120
170 -44 23 -66 24 -94 8z"/>
<path d="M5370 3892 c-47 -15 -140 -146 -140 -197 0 -54 27 -64 143 -49 38 4
77 2 114 -6 51 -13 56 -12 69 5 19 26 17 55 -7 112 -21 49 -59 97 -93 115 -29
16 -70 25 -86 20z"/>
<path d="M10702 3856 c-10 -22 -7 -36 8 -36 3 0 7 14 8 30 3 36 -1 38 -16 6z"/>
<path d="M10624 3776 c-51 -22 -103 -74 -110 -110 -7 -39 10 -109 31 -126 51
-43 165 89 165 191 0 60 -23 72 -86 45z"/>
<path d="M10296 3724 c-59 -21 -123 -65 -136 -93 -16 -36 14 -70 85 -98 35
-13 77 -40 101 -64 51 -50 81 -50 106 1 20 40 24 142 7 187 -28 75 -81 97
-163 67z"/>
<path d="M6176 3621 c-24 -26 -17 -60 17 -84 l27 -21 28 21 c33 25 38 47 18
78 -20 31 -65 33 -90 6z"/>
<path d="M12850 3576 c-27 -33 18 -72 48 -42 13 13 14 20 6 34 -15 23 -38 26
-54 8z"/>
<path d="M16024 3565 c-7 -18 3 -35 21 -35 21 0 28 19 15 35 -16 19 -29 19
-36 0z"/>
<path d="M3847 3539 c-32 -19 -47 -65 -47 -147 0 -235 124 -312 335 -208 104
51 141 104 115 165 -14 36 -47 51 -111 51 -56 0 -103 20 -120 51 -6 11 -27 38
-46 60 -29 32 -42 39 -72 39 -20 0 -44 -5 -54 -11z"/>
<path d="M8903 3488 c-34 -17 -46 -59 -41 -151 7 -130 52 -187 148 -187 80 1
203 64 229 118 16 34 14 50 -14 77 -18 19 -35 25 -70 25 -58 0 -97 20 -125 65
-37 61 -77 77 -127 53z"/>
<path d="M13928 3470 c-30 -31 -30 -31 -26 -123 6 -140 49 -197 148 -197 80 1
203 64 229 118 16 34 14 50 -14 77 -18 19 -35 25 -70 25 -58 0 -97 20 -125 65
-44 71 -93 83 -142 35z"/>
<path d="M3619 3361 c-23 -24 -29 -38 -29 -75 0 -46 18 -76 46 -76 28 0 74 31
89 60 18 35 20 91 3 108 -23 23 -77 14 -109 -17z"/>
<path d="M8710 3340 c-43 -43 -36 -122 11 -128 50 -6 99 66 85 123 -5 21 -12
25 -41 25 -22 0 -43 -8 -55 -20z"/>
<path d="M13750 3342 c-29 -23 -38 -92 -15 -115 48 -49 130 31 111 108 -5 20
-12 25 -40 25 -19 0 -44 -8 -56 -18z"/>
<path d="M8794 3160 c-31 -12 -64 -59 -64 -89 0 -31 25 -71 45 -71 72 0 123
102 75 150 -22 22 -25 23 -56 10z"/>
<path d="M13819 3147 c-44 -30 -60 -84 -35 -121 19 -30 51 -33 82 -8 48 39 60
110 22 136 -29 20 -29 20 -69 -7z"/>
<path d="M3708 3144 c-53 -28 -75 -115 -42 -162 18 -26 44 -28 84 -7 57 30 80
125 40 165 -24 24 -45 25 -82 4z"/>
<path d="M2106 3141 c-4 -7 -5 -15 -2 -18 9 -9 19 4 14 18 -4 11 -6 11 -12 0z"/>
<path d="M7146 3141 c-4 -7 -5 -15 -2 -18 9 -9 19 4 14 18 -4 11 -6 11 -12 0z"/>
<path d="M9132 3143 c-18 -7 -42 -57 -42 -88 0 -65 46 -85 94 -40 58 54 18
156 -52 128z"/>
<path d="M12186 3141 c-4 -7 -5 -15 -2 -18 9 -9 19 4 14 18 -4 11 -6 11 -12 0z"/>
<path d="M14172 3143 c-18 -7 -42 -57 -42 -88 0 -65 46 -85 94 -40 58 54 18
156 -52 128z"/>
<path d="M4110 3112 c-57 -58 -48 -154 15 -159 74 -7 123 99 74 161 -26 34
-54 33 -89 -2z"/>
<path d="M8923 3070 c-39 -23 -53 -48 -53 -94 0 -64 66 -72 115 -14 30 36 32
81 5 108 -25 25 -27 25 -67 0z"/>
<path d="M13974 3080 c-58 -23 -88 -126 -44 -150 72 -38 164 98 98 144 -25 18
-25 18 -54 6z"/>
<path d="M3854 3027 c-65 -59 -57 -157 13 -157 80 0 141 105 97 168 -23 33
-67 29 -110 -11z"/>
<path d="M2190 2985 c0 -10 7 -15 18 -13 21 4 19 22 -2 26 -10 2 -16 -3 -16
-13z"/>
<path d="M7230 2985 c0 -10 7 -15 18 -13 21 4 19 22 -2 26 -10 2 -16 -3 -16
-13z"/>
<path d="M12270 2985 c0 -10 7 -15 18 -13 21 4 19 22 -2 26 -10 2 -16 -3 -16
-13z"/>
<path d="M1921 2976 c-21 -26 10 -63 43 -50 19 7 26 40 13 53 -15 15 -42 14
-56 -3z"/>
<path d="M6961 2976 c-26 -32 19 -68 50 -40 14 13 16 21 8 35 -11 22 -42 25
-58 5z"/>
<path d="M12001 2976 c-22 -26 10 -63 43 -50 35 13 24 64 -14 64 -10 0 -23 -6
-29 -14z"/>
<path d="M1830 2880 c0 -5 5 -10 10 -10 6 0 10 5 10 10 0 6 -4 10 -10 10 -5 0
-10 -4 -10 -10z"/>
<path d="M6870 2880 c0 -5 5 -10 10 -10 6 0 10 5 10 10 0 6 -4 10 -10 10 -5 0
-10 -4 -10 -10z"/>
<path d="M11910 2880 c0 -5 5 -10 10 -10 6 0 10 5 10 10 0 6 -4 10 -10 10 -5
0 -10 -4 -10 -10z"/>
<path d="M5690 2707 c0 -196 -21 -250 -78 -199 -30 27 -130 148 -202 245 -56
75 -80 101 -80 82 0 -3 15 -25 33 -49 41 -56 178 -280 195 -320 19 -46 0 -59
-88 -58 -77 1 -147 20 -213 58 -95 54 -64 12 37 -51 100 -62 218 -98 301 -93
118 7 156 60 156 210 0 96 -32 293 -51 312 -7 7 -10 -37 -10 -137z"/>
<path d="M2821 2791 c-12 -22 -32 -87 -46 -143 -14 -57 -31 -122 -36 -144 -12
-48 -57 -106 -166 -216 -41 -42 -74 -81 -72 -86 2 -6 51 27 108 74 58 47 122
94 143 105 46 23 110 24 213 3 119 -25 116 -3 -5 37 -72 24 -104 47 -95 71 7
19 69 64 160 116 37 22 63 42 58 45 -14 9 -108 -27 -172 -66 -65 -41 -86 -45
-95 -21 -12 31 -6 121 13 189 11 38 18 71 16 73 -2 2 -13 -14 -24 -37z"/>
<path d="M7855 2777 c-14 -30 -37 -106 -51 -169 -14 -62 -32 -127 -41 -145 -8
-18 -62 -82 -120 -143 -58 -60 -103 -114 -101 -119 1 -5 52 31 112 80 60 48
124 95 142 104 41 19 107 19 208 0 120 -23 118 -4 -4 36 -72 24 -104 47 -95
71 7 19 69 64 160 116 37 22 63 42 58 45 -14 9 -108 -27 -172 -66 -65 -41 -86
-45 -95 -21 -12 31 -6 121 14 188 11 38 18 72 15 74 -3 3 -16 -20 -30 -51z"/>
<path d="M12901 2791 c-12 -22 -32 -87 -46 -143 -14 -57 -31 -122 -36 -144
-13 -48 -58 -107 -166 -215 -41 -42 -74 -82 -72 -88 2 -6 45 23 94 65 167 139
202 151 369 119 120 -23 118 -4 -4 36 -79 26 -106 48 -92 75 9 17 83 68 186
128 21 13 35 26 30 29 -15 9 -109 -27 -173 -66 -65 -41 -86 -45 -95 -21 -12
31 -6 121 13 189 11 38 18 71 16 73 -2 2 -13 -14 -24 -37z"/>
<path d="M15401 2758 c73 -114 171 -300 176 -334 5 -29 3 -34 -22 -40 -64 -16
-196 16 -278 68 -66 42 -70 28 -5 -23 74 -59 199 -116 285 -131 66 -11 77 -10
120 8 40 16 52 27 73 69 36 72 34 218 -6 418 -13 63 -22 18 -26 -120 -3 -117
-7 -155 -21 -180 -10 -18 -24 -33 -31 -33 -19 0 -84 75 -162 185 -106 151
-124 175 -134 175 -4 0 9 -28 31 -62z"/>
<path d="M2036 2801 c-4 -5 -2 -12 3 -15 5 -4 12 -2 15 3 4 5 2 12 -3 15 -5 4
-12 2 -15 -3z"/>
<path d="M7076 2801 c-4 -5 -2 -12 3 -15 5 -4 12 -2 15 3 4 5 2 12 -3 15 -5 4
-12 2 -15 -3z"/>
<path d="M12115 2801 c-6 -11 9 -23 19 -14 9 9 7 23 -3 23 -6 0 -12 -4 -16 -9z"/>
<path d="M1853 2793 c-7 -3 -13 -13 -13 -23 0 -19 17 -30 38 -23 6 3 12 13 12
23 0 19 -17 30 -37 23z"/>
<path d="M6893 2793 c-7 -3 -13 -13 -13 -23 0 -19 17 -30 38 -23 6 3 12 13 12
23 0 19 -17 30 -37 23z"/>
<path d="M11933 2793 c-7 -3 -13 -13 -13 -23 0 -19 17 -30 38 -23 6 3 12 13
12 23 0 19 -17 30 -37 23z"/>
<path d="M10925 2759 c-93 -32 -271 -125 -295 -154 -20 -24 6 -19 90 17 171
71 277 77 254 12 -12 -33 -106 -186 -171 -278 -35 -49 -63 -93 -63 -97 0 -18
16 -8 33 19 20 35 232 292 255 310 31 24 52 14 75 -35 18 -41 21 -66 22 -175
0 -71 1 -128 2 -128 1 0 13 33 25 73 17 55 22 97 23 177 0 122 -19 191 -65
235 -26 25 -40 29 -93 32 -34 1 -75 -2 -92 -8z"/>
<path d="M686 2635 c-143 -51 -173 -164 -101 -389 30 -96 133 -309 152 -314
13 -4 10 13 -41 186 -43 149 -50 264 -17 282 12 6 28 7 43 1 32 -12 205 -139
308 -226 121 -101 157 -127 164 -117 3 6 -16 27 -42 48 -79 64 -369 358 -377
383 -11 35 18 58 96 75 94 22 200 20 293 -4 43 -12 81 -19 83 -16 12 12 -126
67 -227 91 -84 19 -280 19 -334 0z"/>
<path d="M204 2515 c-19 -29 -11 -60 20 -81 57 -37 118 44 68 89 -28 25 -69
21 -88 -8z"/>
<path d="M9219 2504 c-17 -21 0 -49 32 -49 27 0 37 28 19 50 -16 19 -34 19
-51 -1z"/>
<path d="M14780 2385 c-26 -31 18 -71 47 -42 19 19 8 57 -16 57 -10 0 -24 -7
-31 -15z"/>
<path d="M13784 2089 c-10 -17 13 -36 27 -22 12 12 4 33 -11 33 -5 0 -12 -5
-16 -11z"/>
<path d="M14013 2004 c-8 -21 9 -48 32 -53 26 -5 47 26 34 50 -12 23 -57 25
-66 3z"/>
<path d="M13432 1958 c2 -15 10 -23 23 -23 30 0 27 39 -3 43 -20 3 -23 0 -20
-20z"/>
<path d="M3620 1900 c0 -5 5 -10 10 -10 6 0 10 5 10 10 0 6 -4 10 -10 10 -5 0
-10 -4 -10 -10z"/>
<path d="M10143 1884 c-6 -17 15 -37 29 -28 13 9 9 32 -7 38 -9 3 -18 -1 -22
-10z"/>
<path d="M3773 1844 c-3 -8 -1 -20 5 -26 16 -16 42 -2 42 22 0 24 -38 28 -47
4z"/>
<path d="M13790 1853 c-19 -7 -40 -33 -40 -50 0 -18 37 -53 55 -53 19 0 55 36
55 55 0 16 -35 56 -47 54 -5 0 -15 -3 -23 -6z"/>
<path d="M3386 1833 c-12 -12 -6 -33 9 -33 8 0 15 6 15 14 0 17 -14 28 -24 19z"/>
<path d="M13984 1829 c-8 -14 11 -33 25 -25 6 4 11 14 11 22 0 16 -26 19 -36
3z"/>
<path d="M250 1805 c-11 -13 -11 -19 3 -33 20 -19 41 -5 35 24 -4 24 -22 28
-38 9z"/>
<path d="M8302 1806 c1 -10 8 -17 13 -17 15 1 12 24 -3 29 -9 3 -13 -2 -10
-12z"/>
<path d="M9970 1805 c-7 -9 -10 -25 -6 -40 6 -22 11 -26 39 -23 25 2 33 8 35
26 7 44 -41 70 -68 37z"/>
<path d="M10296 1784 c-23 -22 -20 -71 3 -84 44 -23 91 -1 91 44 0 47 -62 73
-94 40z"/>
<path d="M15550 1755 c0 -8 7 -15 15 -15 8 0 15 7 15 15 0 8 -7 15 -15 15 -8
0 -15 -7 -15 -15z"/>
<path d="M3604 1736 c-11 -28 1 -51 25 -51 32 0 49 28 32 49 -17 20 -50 21
-57 2z"/>
<path d="M8510 1735 c-18 -22 -1 -50 31 -50 20 0 24 5 24 30 0 23 -5 31 -21
33 -11 2 -27 -4 -34 -13z"/>
<path d="M3755 1731 c-6 -11 9 -23 19 -14 9 9 7 23 -3 23 -6 0 -12 -4 -16 -9z"/>
<path d="M350 1720 c0 -5 5 -10 10 -10 6 0 10 5 10 10 0 6 -4 10 -10 10 -5 0
-10 -4 -10 -10z"/>
<path d="M13455 1711 c-8 -15 3 -31 21 -31 9 0 14 7 12 17 -4 20 -24 28 -33
14z"/>
<path d="M7980 1691 c0 -26 17 -36 35 -21 18 15 8 40 -16 40 -12 0 -19 -7 -19
-19z"/>
<path d="M15275 1671 c-7 -12 12 -24 25 -16 11 7 4 25 -10 25 -5 0 -11 -4 -15
-9z"/>
<path d="M140 1650 c0 -5 5 -10 10 -10 6 0 10 5 10 10 0 6 -4 10 -10 10 -5 0
-10 -4 -10 -10z"/>
<path d="M3390 1640 c0 -5 7 -10 15 -10 8 0 15 5 15 10 0 6 -7 10 -15 10 -8 0
-15 -4 -15 -10z"/>
<path d="M301 1616 c-19 -23 -4 -56 25 -56 28 0 42 25 27 49 -14 22 -37 25
-52 7z"/>
<path d="M8286 1581 c-22 -24 -13 -59 17 -70 45 -17 78 29 50 68 -18 26 -45
27 -67 2z"/>
<path d="M10672 1583 c2 -10 10 -18 18 -18 22 0 18 29 -3 33 -14 3 -18 -1 -15
-15z"/>
<path d="M5650 1573 c-54 -20 -83 -87 -56 -128 22 -34 60 -32 96 4 38 37 47
74 26 106 -16 24 -35 29 -66 18z"/>
<path d="M8480 1565 c0 -8 7 -15 15 -15 8 0 15 7 15 15 0 8 -7 15 -15 15 -8 0
-15 -7 -15 -15z"/>
<path d="M10123 1533 c-17 -6 -16 -30 1 -36 21 -8 40 17 24 30 -7 6 -19 8 -25
6z"/>
<path d="M5407 1504 c-32 -31 -35 -72 -9 -104 39 -49 116 14 110 90 -3 32 -6
35 -39 38 -27 2 -41 -3 -62 -24z"/>
<path d="M4650 1502 c-44 -36 -17 -112 40 -112 29 0 54 22 64 57 5 17 1 29
-18 48 -30 30 -55 32 -86 7z"/>
<path d="M5749 1461 c-22 -22 -29 -39 -29 -68 0 -45 14 -63 47 -63 60 0 103
66 82 127 -9 28 -15 33 -41 33 -19 0 -39 -10 -59 -29z"/>
<path d="M8000 1455 c0 -10 7 -15 18 -13 21 4 19 22 -2 26 -10 2 -16 -3 -16
-13z"/>
<path d="M134 1409 c-8 -14 18 -31 30 -19 9 9 0 30 -14 30 -5 0 -12 -5 -16
-11z"/>
<path d="M12040 1377 c0 -13 13 -70 29 -128 50 -180 90 -376 93 -452 1 -41
-15 -67 -44 -67 -52 0 -189 98 -348 248 -80 76 -79 37 2 -65 135 -171 285
-305 378 -338 58 -21 102 -19 155 6 82 38 158 154 209 317 30 94 56 306 39
323 -6 6 -15 -18 -26 -78 -32 -167 -157 -369 -224 -361 -18 2 -33 14 -45 34
-21 36 -113 293 -166 467 -35 113 -52 143 -52 94z"/>
<path d="M10484 1375 c-9 -23 3 -45 26 -45 25 0 37 25 20 45 -16 19 -39 19
-46 0z"/>
<path d="M310 1355 c0 -8 5 -15 10 -15 6 0 10 7 10 15 0 8 -4 15 -10 15 -5 0
-10 -7 -10 -15z"/>
<path d="M5464 1340 c-29 -10 -64 -26 -79 -36 -37 -24 -58 -75 -45 -109 10
-27 61 -55 102 -55 38 -1 69 -24 107 -81 33 -50 39 -54 75 -54 58 0 80 34 84
133 8 185 -82 260 -244 202z"/>
<path d="M15270 1340 c0 -13 7 -20 20 -20 13 0 20 7 20 20 0 13 -7 20 -20 20
-13 0 -20 -7 -20 -20z"/>
<path d="M16012 1308 c-39 -39 17 -100 58 -63 34 31 20 75 -25 75 -12 0 -26
-5 -33 -12z"/>
<path d="M15504 1286 c-8 -22 3 -33 18 -18 9 9 9 15 0 24 -9 9 -13 7 -18 -6z"/>
<path d="M9151 1277 c-14 -6 -26 -17 -28 -23 -7 -20 72 -119 110 -137 33 -16
44 -17 86 -7 27 6 57 20 66 30 64 70 -137 187 -234 137z"/>
<path d="M2000 1265 c0 -9 13 -69 29 -133 39 -157 63 -286 55 -306 -17 -45
-116 6 -244 124 -108 101 -101 71 16 -71 84 -101 171 -171 237 -190 124 -36
254 153 263 381 l4 95 -15 -65 c-27 -117 -112 -260 -155 -260 -11 0 -26 10
-34 23 -19 28 -136 364 -136 388 0 10 -4 21 -10 24 -5 3 -10 -1 -10 -10z"/>
<path d="M9041 1276 c2 -2 14 -9 27 -15 18 -10 22 -9 22 4 0 10 -9 15 -27 15
-14 0 -24 -2 -22 -4z"/>
<path d="M5779 1231 c-49 -50 -36 -111 24 -111 59 0 112 91 75 128 -22 22 -68
14 -99 -17z"/>
<path d="M8971 1227 c-38 -13 -64 -46 -52 -65 4 -7 43 -28 86 -47 74 -32 81
-33 97 -18 18 16 25 78 10 99 -20 31 -93 47 -141 31z"/>
<path d="M8851 1216 c2 -2 14 -9 27 -15 18 -10 22 -9 22 4 0 10 -9 15 -27 15
-14 0 -24 -2 -22 -4z"/>
<path d="M6540 1160 c0 -16 5 -21 23 -18 12 2 22 10 22 18 0 8 -10 16 -22 18
-18 3 -23 -2 -23 -18z"/>
<path d="M8819 1127 c13 -15 28 -24 32 -21 14 8 11 13 -23 30 l-33 17 24 -26z"/>
<path d="M8874 1085 c-19 -48 35 -137 90 -151 38 -9 81 23 81 62 0 24 -9 33
-65 66 -70 41 -97 47 -106 23z"/>
<path d="M9337 1066 c-61 -17 -117 -68 -117 -109 0 -70 106 -212 153 -205 27
4 67 62 67 97 0 30 28 90 65 140 29 40 22 63 -26 80 -41 14 -81 13 -142 -3z"/>
<path d="M3880 1002 c-22 -18 -22 -19 -6 -50 9 -17 34 -50 56 -73 39 -41 40
-41 99 -37 46 3 67 10 86 28 31 29 31 40 3 75 -50 63 -189 97 -238 57z"/>
<path d="M13850 1014 c0 -2 14 -10 30 -19 25 -13 30 -13 30 -1 0 8 -13 16 -30
18 -16 3 -30 3 -30 2z"/>
<path d="M13960 1002 c-22 -18 -22 -19 -6 -50 9 -17 33 -49 55 -72 35 -37 42
-40 91 -40 42 0 60 6 87 26 39 29 41 42 11 79 -50 63 -189 97 -238 57z"/>
<path d="M3785 1000 c28 -12 45 -12 45 0 0 6 -15 10 -32 9 -28 0 -30 -2 -13
-9z"/>
<path d="M6792 971 c-21 -13 -11 -55 14 -59 30 -4 48 21 34 47 -11 22 -27 26
-48 12z"/>
<path d="M3694 956 c-32 -14 -47 -37 -38 -59 6 -15 139 -77 166 -77 33 0 50
69 28 110 -10 19 -67 40 -105 40 -11 -1 -34 -7 -51 -14z"/>
<path d="M13774 956 c-32 -14 -47 -37 -38 -59 6 -15 139 -77 166 -77 33 0 50
69 28 110 -10 19 -67 40 -105 40 -11 -1 -34 -7 -51 -14z"/>
<path d="M3594 945 c22 -17 46 -20 46 -6 0 5 -10 11 -22 15 -37 9 -44 6 -24
-9z"/>
<path d="M13674 945 c22 -17 46 -20 46 -6 0 5 -10 11 -22 15 -37 9 -44 6 -24
-9z"/>
<path d="M8917 909 c12 -13 26 -18 33 -14 9 6 6 12 -11 21 -36 20 -46 17 -22
-7z"/>
<path d="M9070 919 c-78 -12 -102 -26 -95 -52 23 -76 164 -146 238 -118 23 9
27 16 27 49 0 29 -8 48 -32 76 -38 43 -75 55 -138 45z"/>
<path d="M3560 855 c17 -19 26 -22 31 -13 5 8 0 17 -14 25 -35 20 -42 15 -17
-12z"/>
<path d="M7311 867 c-1 -10 11 -64 25 -120 59 -233 69 -337 31 -337 -32 1
-101 45 -185 119 -51 45 -98 81 -104 79 -12 -4 59 -97 141 -181 179 -186 296
-178 392 27 37 78 61 191 57 265 l-3 56 -12 -63 c-20 -106 -90 -234 -143 -262
-33 -17 -55 22 -120 213 -34 100 -65 191 -70 202 -8 18 -9 18 -9 2z"/>
<path d="M13640 855 c17 -18 26 -22 31 -13 5 7 -2 17 -18 25 -37 19 -40 16
-13 -12z"/>
<path d="M3621 827 c-26 -26 2 -115 46 -144 34 -23 84 -19 106 8 29 36 18 59
-48 99 -76 46 -90 51 -104 37z"/>
<path d="M13701 827 c-28 -28 3 -118 53 -148 35 -22 73 -16 99 14 29 33 17 57
-48 97 -76 46 -90 51 -104 37z"/>
<path d="M6311 804 c-12 -15 -21 -32 -21 -39 0 -7 9 -24 21 -39 28 -35 70 -35
98 1 24 30 20 58 -11 86 -29 25 -63 21 -87 -9z"/>
<path d="M2944 812 c-13 -8 -34 -46 -34 -61 0 -19 39 -51 63 -51 29 0 57 29
57 58 0 42 -54 76 -86 54z"/>
<path d="M4061 797 c-55 -17 -101 -68 -101 -110 0 -65 101 -207 146 -207 30 0
60 45 73 107 8 42 23 75 47 107 40 53 42 84 4 103 -30 15 -122 15 -169 0z"/>
<path d="M14142 795 c-75 -23 -118 -79 -103 -133 21 -70 111 -182 148 -182 26
0 62 51 69 98 8 55 16 73 56 124 35 44 34 77 -2 95 -32 16 -113 15 -168 -2z"/>
<path d="M15647 790 c-45 -35 -48 -122 -6 -135 27 -9 75 12 94 41 18 28 20 85
3 102 -18 18 -62 14 -91 -8z"/>
<path d="M419 771 c-29 -29 -39 -81 -21 -107 22 -32 84 -17 116 28 19 27 21
79 4 96 -22 22 -68 14 -99 -17z"/>
<path d="M10499 771 c-53 -54 -29 -141 35 -125 54 13 90 86 70 138 -11 28 -71
20 -105 -13z"/>
<path d="M15470 763 c-8 -3 -25 -15 -37 -26 -39 -35 -24 -127 20 -127 35 0 87
66 87 109 0 37 -33 57 -70 44z"/>
<path d="M228 745 c-46 -26 -55 -104 -15 -129 45 -28 121 55 102 111 -12 33
-46 40 -87 18z"/>
<path d="M10309 745 c-46 -25 -56 -104 -18 -128 23 -14 66 -1 84 26 51 78 9
143 -66 102z"/>
<path d="M15793 710 c-44 -26 -63 -88 -39 -125 22 -34 60 -33 97 4 35 36 41
97 11 124 -24 21 -30 21 -69 -3z"/>
<path d="M580 707 c-35 -17 -66 -82 -54 -115 14 -38 36 -48 73 -32 56 23 81
109 43 143 -22 20 -29 21 -62 4z"/>
<path d="M10660 707 c-38 -19 -67 -79 -55 -113 15 -40 36 -50 74 -34 54 22 77
92 45 138 -17 25 -29 27 -64 9z"/>
<path d="M13040 680 c-11 -11 -20 -29 -20 -40 0 -26 34 -60 60 -60 26 0 60 34
60 60 0 26 -34 60 -60 60 -11 0 -29 -9 -40 -20z"/>
<path d="M3655 640 c10 -11 22 -17 28 -13 6 4 3 12 -8 20 -28 20 -41 16 -20
-7z"/>
<path d="M3780 648 c-50 -11 -70 -24 -70 -44 0 -22 60 -84 101 -105 43 -22
138 -26 157 -7 31 31 -2 113 -60 148 -36 22 -59 23 -128 8z"/>
<path d="M13735 640 c10 -11 22 -17 28 -13 6 4 3 12 -8 20 -28 20 -41 16 -20
-7z"/>
<path d="M13860 648 c-50 -11 -70 -24 -70 -44 0 -22 60 -84 101 -105 43 -22
138 -26 157 -7 26 26 7 92 -41 136 -30 28 -83 35 -147 20z"/>
<path d="M6186 593 c-14 -15 -5 -43 14 -43 13 0 20 7 20 19 0 19 -23 35 -34
24z"/>
<path d="M15530 587 c-82 -24 -139 -57 -158 -94 -32 -59 3 -104 95 -122 64
-12 78 -23 115 -90 34 -62 104 -66 135 -8 25 47 23 191 -4 243 -36 70 -99 94
-183 71z"/>
<path d="M282 570 c-65 -23 -119 -56 -132 -80 -31 -58 7 -113 86 -124 61 -9
89 -27 110 -69 24 -48 55 -77 80 -77 42 0 74 39 84 102 17 108 -14 212 -73
248 -40 25 -87 25 -155 0z"/>
<path d="M10365 572 c-110 -41 -145 -71 -145 -125 0 -43 37 -73 100 -82 58 -8
85 -29 125 -96 65 -109 163 -20 149 136 -15 155 -98 215 -229 167z"/>
<path d="M6590 520 c0 -16 5 -21 23 -18 12 2 22 10 22 18 0 8 -10 16 -22 18
-18 3 -23 -2 -23 -18z"/>
<path d="M15832 483 c-33 -16 -62 -57 -62 -87 0 -9 11 -23 25 -32 37 -24 92
-3 111 42 16 37 6 77 -21 88 -20 7 -14 9 -53 -11z"/>
<path d="M604 471 c-37 -23 -62 -76 -47 -100 5 -9 26 -17 46 -19 48 -4 87 32
87 81 0 57 -31 71 -86 38z"/>
<path d="M10679 467 c-65 -44 -64 -109 3 -115 53 -5 88 28 88 83 0 61 -32 72
-91 32z"/>
<path d="M6267 410 c-27 -39 8 -89 53 -75 24 7 37 51 23 74 -16 25 -59 26 -76
1z"/>
</g>
</svg>
