<?xml version="1.0" standalone="no"?>
<!DOCTYPE svg PUBLIC "-//W3C//DTD SVG 20010904//EN"
 "http://www.w3.org/TR/2001/REC-SVG-20010904/DTD/svg10.dtd">
<svg version="1.0" xmlns="http://www.w3.org/2000/svg"
 width="817.000000pt" height="490.000000pt" viewBox="0 0 817.000000 490.000000"
 preserveAspectRatio="xMidYMid meet">

<g transform="translate(0.000000,490.000000) scale(0.100000,-0.100000)"
fill="#000000" stroke="none">
<path d="M7 4893 c-4 -3 -7 -495 -7 -1091 0 -597 3 -1083 6 -1079 3 3 5 80 4
170 -1 183 -7 168 70 182 61 11 202 56 274 86 84 36 199 106 326 199 209 153
384 214 544 189 131 -21 221 -93 289 -231 64 -129 82 -213 82 -378 0 -131 -3
-159 -35 -290 -33 -139 -34 -153 -35 -335 0 -265 34 -434 121 -609 87 -172
402 -549 578 -690 106 -85 151 -136 261 -291 129 -183 230 -291 394 -424 83
-67 163 -141 179 -164 35 -50 62 -102 62 -117 0 -8 -53 -10 -175 -8 -96 2
-175 0 -175 -4 0 -5 702 -8 1560 -8 858 0 1560 3 1560 8 0 4 -75 6 -167 4 -99
-2 -170 1 -176 7 -17 17 -20 146 -6 283 25 239 23 253 -47 403 -34 72 -97 218
-139 325 -121 308 -211 452 -323 518 -42 24 -57 27 -132 26 -100 -1 -149 -20
-272 -105 -246 -172 -439 -347 -523 -474 -22 -33 -74 -137 -116 -232 -82 -183
-141 -289 -211 -376 -24 -29 -71 -88 -106 -131 -68 -85 -93 -127 -113 -194 -8
-29 -19 -44 -33 -48 -12 -2 -102 -3 -201 -2 l-180 3 -38 70 c-47 87 -56 96
-197 210 -194 157 -306 276 -422 449 -79 117 -144 189 -255 282 -131 110 -193
177 -381 412 -150 186 -213 292 -255 427 -40 128 -61 282 -61 450 0 148 7 202
44 360 60 253 42 468 -56 655 -102 195 -266 272 -482 226 -130 -27 -191 -60
-482 -260 -69 -47 -163 -102 -210 -122 -77 -32 -291 -94 -326 -94 -12 0 -14
27 -12 173 l3 172 85 6 c168 12 251 36 450 129 247 117 381 152 580 153 134 1
200 -12 290 -58 149 -77 264 -295 321 -613 26 -143 22 -255 -16 -417 -47 -199
-49 -219 -48 -370 1 -167 18 -256 73 -374 96 -205 285 -366 444 -378 113 -9
174 45 313 274 152 249 262 340 560 460 198 79 250 108 318 177 110 109 141
208 154 481 12 255 30 278 226 289 118 7 173 24 237 71 95 70 156 184 165 310
8 117 -22 232 -140 528 -123 305 -127 319 -127 415 0 59 5 83 26 125 28 55
180 219 226 243 21 11 86 14 307 14 l280 0 15 -27 c27 -54 114 -320 141 -433
73 -308 72 -307 297 -548 57 -61 88 -105 117 -165 49 -103 55 -132 80 -347 11
-97 34 -261 50 -365 17 -105 37 -274 45 -377 25 -305 56 -383 177 -447 58 -30
70 -33 129 -29 122 9 235 87 313 215 79 129 102 229 116 503 12 226 31 314 90
436 53 106 131 190 272 290 192 138 249 216 270 373 12 92 1 209 -26 261 -19
37 -77 84 -123 99 -21 7 -128 16 -247 20 -178 7 -220 12 -274 30 -220 76 -419
245 -502 428 -16 35 -29 67 -29 73 0 7 46 10 137 8 l138 -3 35 -65 c46 -86
140 -179 218 -219 125 -63 252 -74 543 -46 265 25 309 39 339 108 10 23 24 71
31 107 23 126 8 115 151 118 l125 3 39 -52 c53 -71 127 -110 294 -154 269 -71
352 -137 406 -320 21 -73 24 -208 5 -285 -60 -245 -220 -364 -647 -485 -308
-87 -386 -162 -415 -397 -39 -318 88 -595 354 -777 26 -18 155 -88 287 -156
248 -128 357 -196 425 -265 l40 -41 5 -317 c3 -174 5 486 5 1468 l0 1785
-2487 3 c-1369 1 -2488 -1 -2488 -5 0 -5 65 -7 145 -5 118 2 145 0 145 -11 0
-22 -45 -146 -88 -242 -65 -145 -83 -209 -138 -479 -87 -434 -159 -542 -381
-576 -196 -31 -440 84 -598 279 -78 96 -306 473 -402 665 -44 88 -105 259
-117 328 l-7 37 63 4 c35 2 -12 4 -104 5 -92 1 -169 -1 -171 -5 -3 -5 40 -8
96 -8 l100 0 22 -90 c37 -149 88 -257 258 -550 199 -341 264 -431 386 -527
132 -106 272 -158 421 -158 139 0 248 56 316 162 40 63 93 233 130 422 51 259
102 425 173 564 10 20 27 64 36 97 10 33 22 66 28 73 8 10 77 12 319 11 266
-1 341 -6 298 -21 -5 -1 -48 -41 -95 -88 -112 -110 -139 -165 -139 -275 0 -95
16 -145 120 -398 85 -206 130 -343 144 -443 25 -184 -56 -351 -207 -426 -59
-29 -79 -33 -177 -38 -143 -8 -177 -23 -210 -94 -21 -45 -25 -70 -30 -204 -10
-263 -53 -391 -164 -493 -63 -58 -100 -77 -277 -149 -232 -94 -321 -148 -427
-256 -75 -77 -81 -86 -179 -244 -159 -258 -231 -293 -412 -202 -85 42 -213
165 -266 256 -45 76 -86 192 -101 289 -20 123 -8 324 30 482 44 184 51 342 20
490 -65 322 -185 528 -347 603 -154 71 -381 69 -615 -4 -46 -14 -149 -57 -229
-94 -81 -38 -182 -80 -226 -93 -70 -23 -226 -47 -298 -47 l-25 0 0 440 c0 345
3 440 13 440 6 0 50 -7 97 -15 246 -45 381 -2 564 180 99 98 171 207 209 316
13 35 26 70 31 77 6 9 41 12 141 10 73 -2 131 0 128 5 -5 9 -1177 10 -1186 0z
m483 -11 c0 -13 -41 -48 -78 -66 -57 -29 -131 -37 -269 -30 l-133 7 0 42 c0
23 3 45 7 48 9 10 473 9 473 -1z m410 -7 c0 -8 -11 -45 -25 -82 -81 -213 -299
-431 -480 -478 -75 -19 -143 -18 -275 4 l-105 17 0 219 0 220 170 0 c191 0
219 7 303 78 l44 37 184 0 c156 0 184 -2 184 -15z m4177 -77 c24 -47 65 -110
92 -138 42 -45 53 -51 82 -48 47 4 60 37 67 170 l5 108 154 0 c148 0 155 -1
160 -20 3 -12 20 -51 38 -88 86 -179 317 -364 527 -422 60 -16 112 -21 254
-24 239 -5 294 -22 350 -106 25 -38 28 -52 32 -155 4 -95 1 -125 -16 -182 -34
-109 -80 -165 -232 -273 -156 -111 -233 -191 -289 -299 -59 -114 -79 -210 -96
-466 -10 -155 -21 -242 -35 -295 -84 -300 -309 -462 -506 -365 -60 30 -92 69
-125 154 -19 50 -23 84 -54 401 -8 85 -28 238 -44 340 -17 102 -35 236 -41
299 -26 276 -67 366 -249 556 -153 159 -173 198 -241 480 -23 94 -65 234 -94
312 -29 78 -51 145 -48 148 3 3 64 4 136 3 l129 -3 44 -87z m223 -6 c0 -146
-26 -196 -83 -159 -49 32 -157 200 -157 243 0 8 37 12 120 13 l120 2 0 -99z
m932 44 c146 -143 418 -137 583 15 l42 39 116 0 c64 0 118 -3 120 -7 9 -14
-21 -161 -42 -207 -11 -27 -31 -50 -48 -59 -67 -35 -292 -61 -518 -62 -165 0
-172 1 -240 29 -87 36 -137 70 -195 132 -40 43 -110 150 -110 168 0 3 54 6
119 6 l119 0 54 -54z m585 41 c-7 -22 -86 -75 -144 -98 -88 -33 -221 -38 -306
-10 -66 22 -163 94 -152 112 9 14 607 10 602 -4z m1341 -739 c1 -533 -1 -748
-9 -748 -6 0 -50 14 -97 31 -79 29 -100 32 -238 37 -131 4 -161 2 -235 -17
-249 -63 -358 -175 -367 -377 -7 -155 36 -262 149 -368 113 -107 248 -156 429
-156 81 0 221 21 304 45 27 8 53 12 57 9 6 -3 9 -139 9 -311 l-1 -305 -49 46
c-72 68 -193 142 -395 244 -230 116 -316 167 -389 231 -183 162 -266 346 -266
592 0 183 28 277 103 352 51 51 130 86 323 143 358 104 511 199 594 367 100
204 68 487 -71 611 -52 48 -159 98 -265 125 -128 33 -223 67 -266 97 -38 27
-78 73 -78 91 0 5 167 8 378 8 l377 0 3 -747z m-110 -732 l112 -37 0 -374 c0
-206 -4 -376 -8 -379 -4 -3 -60 -17 -123 -32 -89 -20 -141 -27 -234 -27 -188
-1 -308 40 -420 144 -131 123 -183 287 -141 444 34 130 108 202 263 256 109
38 182 49 313 45 111 -3 138 -8 238 -40z m-3037 -1863 c49 -19 136 -113 188
-201 42 -73 100 -204 181 -412 29 -74 75 -179 102 -233 67 -134 72 -167 53
-311 -8 -64 -15 -175 -15 -247 l0 -129 -185 0 -185 0 -45 69 c-60 94 -89 154
-113 233 -50 159 -65 329 -50 553 6 94 8 191 4 216 -8 55 -48 120 -86 143 -79
46 -282 -9 -435 -118 -128 -92 -215 -211 -276 -376 -34 -94 -119 -415 -154
-584 -13 -64 -26 -120 -30 -126 -4 -6 -81 -10 -207 -10 l-200 0 6 27 c15 61
69 153 141 238 136 160 233 319 299 490 84 215 202 363 435 544 126 98 267
198 308 220 79 41 184 46 264 14z m-153 -340 c75 -56 87 -111 71 -335 -10
-131 -10 -195 0 -293 20 -205 55 -320 147 -476 24 -42 44 -79 44 -82 0 -4
-254 -7 -565 -7 -560 0 -565 0 -565 20 0 26 40 213 80 372 90 359 140 476 251
593 167 175 439 281 537 208z"/>
<path d="M5556 4259 c-40 -32 -36 -100 23 -332 27 -106 54 -236 60 -288 5 -52
13 -274 16 -494 8 -485 15 -580 51 -654 22 -44 35 -57 71 -73 43 -19 47 -19
89 -3 54 21 107 80 136 154 19 50 22 84 29 301 4 160 12 270 23 316 40 185
120 332 304 564 106 133 132 191 108 238 -22 42 -52 58 -167 87 -57 15 -198
62 -314 105 -286 106 -374 122 -429 79z m253 -28 c47 -16 146 -52 220 -80 73
-28 186 -65 250 -82 134 -36 181 -64 181 -110 0 -50 -22 -88 -138 -236 -124
-160 -177 -243 -222 -353 -62 -148 -71 -202 -79 -480 -7 -229 -10 -261 -31
-313 -50 -130 -160 -195 -232 -137 -71 55 -83 155 -93 765 -3 209 -11 416 -16
460 -6 43 -33 168 -60 276 -61 245 -63 301 -9 323 29 11 144 -5 229 -33z"/>
<path d="M4436 700 c-31 -38 -49 -101 -41 -143 10 -44 52 -87 86 -87 60 0 110
94 89 169 -24 91 -85 118 -134 61z m94 -5 c47 -50 35 -176 -19 -205 -30 -16
-50 -12 -76 15 -32 31 -34 108 -5 164 29 58 62 66 100 26z"/>
<path d="M2250 4893 c0 -3 37 -79 83 -167 46 -89 110 -228 142 -310 49 -126
65 -156 104 -197 38 -39 54 -49 80 -49 62 0 111 77 111 173 0 21 -18 129 -40
240 -21 111 -42 228 -45 260 l-6 57 -215 0 c-118 0 -214 -3 -214 -7z m424 -75
c4 -40 19 -125 32 -188 57 -261 61 -327 28 -392 -20 -39 -56 -60 -88 -52 -52
13 -102 87 -162 242 -32 81 -93 215 -136 298 -43 83 -78 153 -78 157 0 3 89 6
199 7 l198 0 7 -72z"/>
<path d="M2031 4854 c0 -11 3 -14 6 -6 3 7 2 16 -1 19 -3 4 -6 -2 -5 -13z"/>
<path d="M3171 4814 c0 -11 3 -14 6 -6 3 7 2 16 -1 19 -3 4 -6 -2 -5 -13z"/>
<path d="M1570 4735 c0 -5 5 -17 10 -25 5 -8 10 -10 10 -5 0 6 -5 17 -10 25
-5 8 -10 11 -10 5z"/>
<path d="M3152 4680 c0 -14 2 -19 5 -12 2 6 2 18 0 25 -3 6 -5 1 -5 -13z"/>
<path d="M1090 4640 c-6 -11 -8 -20 -6 -20 3 0 10 9 16 20 6 11 8 20 6 20 -3
0 -10 -9 -16 -20z"/>
<path d="M3142 4600 c0 -14 2 -19 5 -12 2 6 2 18 0 25 -3 6 -5 1 -5 -13z"/>
<path d="M4343 4570 c-92 -53 -135 -149 -113 -254 34 -164 201 -351 287 -320
78 27 129 281 88 437 -40 154 -141 206 -262 137z m167 -2 c45 -30 81 -106 94
-196 18 -129 -29 -332 -84 -362 -52 -28 -177 75 -236 195 -70 143 -60 256 28
330 70 59 142 71 198 33z"/>
<path d="M2160 4561 c0 -6 4 -13 10 -16 6 -3 7 1 4 9 -7 18 -14 21 -14 7z"/>
<path d="M3132 4490 c0 -14 2 -19 5 -12 2 6 2 18 0 25 -3 6 -5 1 -5 -13z"/>
<path d="M907 4379 c-16 -21 -26 -39 -24 -39 7 0 59 71 56 75 -2 2 -17 -14
-32 -36z"/>
<path d="M863 4318 c-15 -20 -25 -38 -20 -38 3 0 12 11 21 25 17 26 16 35 -1
13z"/>
<path d="M1804 4245 c48 -89 133 -225 140 -225 2 0 -26 51 -63 113 -38 61 -78
131 -90 155 -12 23 -24 42 -27 42 -3 0 15 -38 40 -85z"/>
<path d="M2140 4311 c0 -6 4 -13 10 -16 6 -3 7 1 4 9 -7 18 -14 21 -14 7z"/>
<path d="M800 4220 c-6 -11 -8 -20 -6 -20 3 0 10 9 16 20 6 11 8 20 6 20 -3 0
-10 -9 -16 -20z"/>
<path d="M2200 4200 c6 -11 13 -20 16 -20 2 0 0 9 -6 20 -6 11 -13 20 -16 20
-2 0 0 -9 6 -20z"/>
<path d="M3101 4164 c0 -11 3 -14 6 -6 3 7 2 16 -1 19 -3 4 -6 -2 -5 -13z"/>
<path d="M751 4024 c0 -11 3 -14 6 -6 3 7 2 16 -1 19 -3 4 -6 -2 -5 -13z"/>
<path d="M2895 4009 c-4 -6 -5 -12 -2 -15 2 -3 7 2 10 11 7 17 1 20 -8 4z"/>
<path d="M770 3980 c6 -11 13 -20 16 -20 2 0 0 9 -6 20 -6 11 -13 20 -16 20
-2 0 0 -9 6 -20z"/>
<path d="M819 3941 c13 -12 28 -21 34 -21 12 0 11 0 -28 24 l-30 17 24 -20z"/>
<path d="M1990 3946 c0 -2 8 -10 18 -17 15 -13 16 -12 3 4 -13 16 -21 21 -21
13z"/>
<path d="M3035 3939 c-4 -6 -5 -12 -2 -15 2 -3 7 2 10 11 7 17 1 20 -8 4z"/>
<path d="M878 3913 c7 -3 16 -2 19 1 4 3 -2 6 -13 5 -11 0 -14 -3 -6 -6z"/>
<path d="M918 3903 c7 -3 16 -2 19 1 4 3 -2 6 -13 5 -11 0 -14 -3 -6 -6z"/>
<path d="M3000 3880 c-12 -16 -19 -30 -16 -30 2 0 14 14 26 30 12 17 19 30 16
30 -2 0 -14 -13 -26 -30z"/>
<path d="M973 3893 c9 -2 23 -2 30 0 6 3 -1 5 -18 5 -16 0 -22 -2 -12 -5z"/>
<path d="M1093 3883 c9 -2 25 -2 35 0 9 3 1 5 -18 5 -19 0 -27 -2 -17 -5z"/>
<path d="M1193 3873 c9 -2 25 -2 35 0 9 3 1 5 -18 5 -19 0 -27 -2 -17 -5z"/>
<path d="M1293 3863 c9 -2 23 -2 30 0 6 3 -1 5 -18 5 -16 0 -22 -2 -12 -5z"/>
<path d="M1358 3853 c7 -3 16 -2 19 1 4 3 -2 6 -13 5 -11 0 -14 -3 -6 -6z"/>
<path d="M1398 3843 c7 -3 16 -2 19 1 4 3 -2 6 -13 5 -11 0 -14 -3 -6 -6z"/>
<path d="M2100 3805 c13 -14 26 -25 28 -25 3 0 -5 11 -18 25 -13 14 -26 25
-28 25 -3 0 5 -11 18 -25z"/>
<path d="M2919 3793 c-13 -16 -12 -17 4 -4 16 13 21 21 13 21 -2 0 -10 -8 -17
-17z"/>
<path d="M2140 3756 c0 -2 8 -10 18 -17 15 -13 16 -12 3 4 -13 16 -21 21 -21
13z"/>
<path d="M2688 3733 c6 -2 18 -2 25 0 6 3 1 5 -13 5 -14 0 -19 -2 -12 -5z"/>
<path d="M2748 3733 c12 -2 30 -2 40 0 9 3 -1 5 -23 4 -22 0 -30 -2 -17 -4z"/>
<path d="M2190 3707 c0 -2 15 -16 33 -33 l32 -29 -29 33 c-28 30 -36 37 -36
29z"/>
<path d="M2275 3630 c18 -21 120 -96 155 -115 25 -14 9 -1 -85 70 -49 37 -81
57 -70 45z"/>
<path d="M2012 3497 c-48 -52 -36 -209 38 -461 87 -299 98 -382 74 -584 -18
-162 -14 -202 29 -238 37 -31 70 -28 137 15 25 15 88 55 140 88 52 33 138 84
190 113 155 85 248 163 293 245 30 55 30 180 1 245 -49 106 -125 171 -451 387
-246 162 -320 203 -387 210 -34 4 -45 1 -64 -20z m171 -29 c34 -17 174 -105
311 -196 362 -242 427 -314 428 -476 0 -140 -66 -216 -318 -361 -76 -44 -178
-105 -226 -137 -116 -76 -141 -88 -181 -88 -70 0 -81 55 -58 272 18 166 8 255
-59 493 -56 200 -75 280 -85 371 -8 70 7 138 33 154 25 16 86 3 155 -32z"/>
<path d="M2534 3456 c11 -9 24 -16 30 -16 12 0 7 5 -24 19 -24 11 -24 11 -6
-3z"/>
<path d="M2587 3429 c7 -7 15 -10 18 -7 3 3 -2 9 -12 12 -14 6 -15 5 -6 -5z"/>
<path d="M2808 3343 c7 -3 16 -2 19 1 4 3 -2 6 -13 5 -11 0 -14 -3 -6 -6z"/>
<path d="M2878 3323 c7 -3 16 -2 19 1 4 3 -2 6 -13 5 -11 0 -14 -3 -6 -6z"/>
<path d="M2960 3295 c14 -8 30 -14 35 -14 6 0 -1 6 -15 14 -14 8 -29 14 -35
14 -5 0 1 -6 15 -14z"/>
<path d="M1021 3095 c-50 -24 -109 -65 -156 -109 -11 -10 -114 -89 -230 -176
-115 -87 -224 -173 -242 -191 -111 -119 -102 -254 25 -384 53 -53 510 -384
582 -420 105 -53 162 -41 199 44 40 94 46 176 31 452 -12 222 -12 273 2 423
22 239 7 322 -65 366 -43 26 -81 25 -146 -5z m160 -20 c41 -41 53 -98 45 -230
-3 -63 -9 -167 -12 -231 -4 -64 -1 -218 5 -342 13 -243 6 -332 -35 -418 -34
-72 -109 -75 -214 -9 -119 75 -501 355 -546 401 -119 121 -127 250 -21 365 18
20 120 101 227 181 107 80 222 168 255 197 33 28 92 67 130 87 81 41 121 41
166 -1z"/>
<path d="M765 2477 c-45 -45 -52 -78 -29 -128 18 -42 80 -93 126 -104 40 -10
79 30 85 86 6 53 -26 140 -61 164 -36 26 -84 19 -121 -18z m125 -7 c31 -33 56
-116 45 -152 -11 -36 -36 -58 -65 -58 -39 0 -103 50 -124 97 -17 39 -17 42 0
78 17 37 58 64 97 65 11 0 32 -13 47 -30z"/>
<path d="M1901 2944 c0 -11 3 -14 6 -6 3 7 2 16 -1 19 -3 4 -6 -2 -5 -13z"/>
<path d="M1912 2890 c0 -14 2 -19 5 -12 2 6 2 18 0 25 -3 6 -5 1 -5 -13z"/>
<path d="M4603 2839 c-99 -19 -279 -133 -389 -245 -64 -65 -126 -159 -160
-243 -115 -282 -166 -379 -271 -519 -62 -84 -103 -164 -103 -205 0 -18 11 -39
29 -58 25 -24 37 -29 78 -29 97 1 215 60 333 168 38 34 124 129 192 210 68 81
207 232 309 337 210 214 242 262 242 355 0 121 -73 206 -198 233 -11 3 -39 1
-62 -4z m114 -20 c74 -28 133 -118 133 -204 0 -92 -26 -131 -220 -330 -96 -99
-226 -241 -289 -315 -203 -242 -286 -319 -404 -376 -122 -58 -227 -53 -243 12
-8 32 18 100 64 167 160 232 190 286 277 499 68 165 105 227 190 313 179 182
378 277 492 234z"/>
<path d="M3206 2635 c-9 -26 -7 -32 5 -12 6 10 9 21 6 23 -2 3 -7 -2 -11 -11z"/>
<path d="M1901 2614 c0 -11 3 -14 6 -6 3 7 2 16 -1 19 -3 4 -6 -2 -5 -13z"/>
<path d="M6588 2572 c-23 -27 -74 -105 -112 -173 -231 -417 -371 -572 -590
-655 -169 -64 -230 -135 -207 -238 22 -96 104 -181 203 -211 72 -21 139 -7
300 61 174 73 253 88 437 82 131 -4 155 -8 241 -37 114 -39 174 -75 237 -145
69 -75 109 -166 155 -350 45 -181 62 -219 112 -264 70 -61 178 -67 289 -14
153 72 259 262 244 438 -8 111 -50 181 -316 529 -205 270 -213 278 -416 500
-101 110 -235 263 -297 340 -112 138 -166 184 -215 185 -13 0 -38 -19 -65 -48z
m99 27 c40 -15 61 -36 198 -204 67 -82 194 -227 281 -320 197 -212 196 -211
444 -540 122 -163 217 -298 237 -340 58 -122 53 -233 -14 -372 -62 -127 -196
-216 -323 -217 -57 -1 -74 3 -115 29 -64 40 -84 82 -133 280 -48 196 -86 278
-167 361 -131 134 -366 201 -613 175 -127 -13 -163 -23 -324 -92 -202 -85
-300 -79 -398 27 -46 50 -70 99 -72 147 -3 91 42 134 206 201 106 42 221 121
293 200 72 80 166 223 283 429 86 153 154 247 179 247 5 0 22 -5 38 -11z"/>
<path d="M6635 2146 c-37 -16 -113 -97 -147 -156 -61 -106 -71 -199 -29 -258
43 -61 206 -108 456 -133 177 -18 235 0 235 74 0 87 -132 279 -266 387 -120
96 -179 117 -249 86z m123 -16 c181 -82 422 -397 373 -489 -21 -39 -81 -46
-236 -27 -196 23 -280 42 -355 79 -52 25 -69 40 -84 71 -17 34 -17 44 -7 92
33 146 156 293 246 293 11 0 39 -8 63 -19z"/>
<path d="M1891 2564 c0 -11 3 -14 6 -6 3 7 2 16 -1 19 -3 4 -6 -2 -5 -13z"/>
<path d="M2915 2370 c-3 -6 1 -7 9 -4 18 7 21 14 7 14 -6 0 -13 -4 -16 -10z"/>
<path d="M1842 2330 c0 -14 2 -19 5 -12 2 6 2 18 0 25 -3 6 -5 1 -5 -13z"/>
<path d="M2834 2324 c-18 -14 -18 -15 4 -4 12 6 22 13 22 15 0 8 -5 6 -26 -11z"/>
<path d="M2594 2168 l-19 -23 23 19 c21 18 27 26 19 26 -2 0 -12 -10 -23 -22z"/>
<path d="M1842 2150 c0 -14 2 -19 5 -12 2 6 2 18 0 25 -3 6 -5 1 -5 -13z"/>
<path d="M2454 2028 l-29 -33 33 29 c30 28 37 36 29 36 -2 0 -16 -15 -33 -32z"/>
<path d="M1940 1915 c14 -16 26 -32 28 -34 1 -2 4 -2 7 1 3 2 -10 18 -28 34
l-32 29 25 -30z"/>
<path d="M4 970 l1 -965 810 -1 c454 0 733 3 635 7 -118 4 -191 12 -224 23
-65 21 -117 20 -174 -4 -45 -20 -65 -20 -542 -18 l-495 3 -3 101 -3 101 238 6
c248 6 342 19 433 58 120 53 144 118 162 447 18 323 -2 472 -88 650 -36 74
-60 107 -122 170 -138 139 -259 184 -486 181 l-131 -1 -6 103 c-3 57 -5 -330
-5 -861z m336 729 c98 -19 196 -74 274 -153 39 -39 86 -97 105 -129 41 -70 86
-199 102 -292 14 -87 14 -382 0 -531 -24 -250 -70 -301 -304 -339 -120 -19
-333 -30 -430 -21 l-78 8 3 101 3 102 125 7 c321 17 450 104 520 350 30 105
38 282 16 379 -60 269 -248 408 -503 370 -49 -7 -105 -15 -126 -18 l-37 -6 0
91 0 91 78 3 c104 4 186 0 252 -13z m92 -197 c205 -101 295 -385 218 -689 -62
-240 -193 -330 -513 -348 l-128 -7 3 128 3 129 110 5 c94 5 119 10 167 33 113
55 189 174 196 305 5 92 -11 150 -56 203 -69 80 -153 96 -298 58 -140 -37
-124 -48 -124 79 l0 111 32 6 c18 3 53 10 78 15 25 5 90 8 145 7 91 -2 107 -5
167 -35z m-106 -187 c53 -16 99 -56 130 -115 14 -26 19 -56 19 -120 0 -74 -4
-93 -31 -150 -65 -138 -175 -199 -356 -200 l-78 0 0 270 0 269 72 22 c67 19
138 35 179 38 8 0 38 -6 65 -14z m899 -1296 c5 -5 -29 -9 -80 -9 -55 0 -85 4
-79 9 20 20 137 20 159 0z"/>
<path d="M2309 1873 l-24 -28 28 24 c25 23 32 31 24 31 -2 0 -14 -12 -28 -27z"/>
<path d="M2015 1846 c17 -14 34 -26 39 -26 11 0 11 0 -34 29 l-35 23 30 -26z"/>
<path d="M2225 1820 c-16 -7 -17 -9 -3 -9 9 -1 20 4 23 9 7 11 7 11 -20 0z"/>
<path d="M2108 1803 c7 -3 16 -2 19 1 4 3 -2 6 -13 5 -11 0 -14 -3 -6 -6z"/>
<path d="M2153 1803 c9 -2 25 -2 35 0 9 3 1 5 -18 5 -19 0 -27 -2 -17 -5z"/>
<path d="M4379 1693 c-13 -16 -12 -17 4 -4 9 7 17 15 17 17 0 8 -8 3 -21 -13z"/>
<path d="M4089 1423 c-13 -16 -12 -17 4 -4 9 7 17 15 17 17 0 8 -8 3 -21 -13z"/>
<path d="M3599 903 c-13 -16 -12 -17 4 -4 16 13 21 21 13 21 -2 0 -10 -8 -17
-17z"/>
<path d="M8162 860 c-2 -8 -3 -109 -3 -225 1 -150 -3 -216 -12 -232 -19 -34
-133 -121 -206 -157 -36 -18 -120 -52 -186 -76 -145 -51 -179 -68 -234 -114
-53 -45 -57 -45 -211 -49 -69 -1 95 -4 363 -5 382 -2 489 1 492 11 3 6 4 203
2 437 -1 234 -4 418 -5 410z m-4 -662 l-3 -183 -327 -3 c-181 -1 -328 1 -328
5 0 12 60 58 105 80 22 11 87 37 145 58 155 55 237 95 315 155 39 30 72 57 73
62 2 4 8 8 13 8 6 0 8 -73 7 -182z"/>
<path d="M6408 185 c-74 -19 -146 -56 -179 -92 -31 -33 -59 -74 -59 -85 0 -5
169 -8 375 -8 305 0 375 2 375 13 0 8 -13 34 -30 58 -52 80 -147 117 -320 124
-73 3 -123 0 -162 -10z m312 -22 c30 -8 74 -25 97 -38 39 -23 83 -78 83 -104
0 -15 -696 -16 -705 0 -4 5 15 32 42 58 51 51 122 84 216 100 63 11 193 4 267
-16z"/>
<path d="M2192 96 c-25 -13 -62 -63 -62 -83 0 -10 35 -13 140 -13 79 0 140 4
140 9 0 18 -80 78 -119 89 -48 15 -70 15 -99 -2z m89 -7 c39 -13 99 -55 99
-70 0 -5 -49 -9 -115 -9 -75 0 -115 4 -115 11 0 21 21 49 48 63 33 19 40 19
83 5z"/>
</g>
</svg>
