<?xml version="1.0" standalone="no"?>
<!DOCTYPE svg PUBLIC "-//W3C//DTD SVG 20010904//EN"
 "http://www.w3.org/TR/2001/REC-SVG-20010904/DTD/svg10.dtd">
<svg version="1.0" xmlns="http://www.w3.org/2000/svg"
 width="700.000000pt" height="490.000000pt" viewBox="0 0 700.000000 490.000000"
 preserveAspectRatio="xMidYMid meet">

<g transform="translate(0.000000,490.000000) scale(0.100000,-0.100000)"
fill="#000000" stroke="none">
<path d="M945 4608 c-2 -7 -7 -35 -11 -63 -3 -27 -9 -44 -11 -37 -11 29 -23
-3 -23 -59 0 -51 6 -72 40 -136 22 -42 40 -86 40 -99 0 -12 10 -35 23 -51 12
-15 35 -47 50 -70 15 -24 59 -66 98 -95 l71 -51 -53 -20 c-30 -11 -83 -42
-120 -68 -143 -104 -284 -149 -529 -169 -157 -12 -191 -22 -229 -65 -60 -69
-65 -87 -68 -250 -3 -154 -13 -205 -55 -289 -26 -51 -22 -86 34 -276 25 -85
49 -173 53 -195 11 -62 21 -75 60 -75 42 0 44 11 10 74 -34 63 -77 236 -78
316 l-2 64 43 24 c24 14 67 53 95 87 29 35 54 61 56 59 3 -2 -7 -30 -22 -62
-36 -77 -98 -387 -87 -435 11 -50 17 -57 56 -57 37 0 41 6 19 34 -21 28 -18
123 8 238 24 105 36 122 108 168 26 17 50 37 53 45 3 8 16 21 30 30 25 17 27
16 67 -19 59 -50 94 -59 215 -54 99 3 105 2 109 -17 50 -228 57 -450 19 -577
-4 -13 -1 -16 9 -12 9 3 16 -2 19 -14 4 -14 16 -21 45 -23 65 -7 74 -2 57 29
-8 15 -13 41 -13 57 1 21 3 24 6 10 3 -11 12 -26 21 -32 19 -15 92 -17 92 -3
0 5 -12 34 -27 64 l-27 55 17 103 c9 57 21 121 26 143 6 22 22 100 37 173 26
126 29 135 74 191 26 33 65 88 86 123 l39 63 7 -60 c10 -76 14 -86 32 -79 21
8 37 55 35 101 -2 32 5 52 39 103 23 34 42 66 42 70 0 4 25 10 57 12 78 7 93
27 93 122 0 71 -1 73 -40 111 -33 32 -40 46 -40 77 l0 38 108 0 c59 0 122 4
140 9 35 10 166 125 220 193 27 35 32 48 31 92 l-2 51 -6 -40 c-6 -37 -57
-125 -81 -140 -16 -10 -12 2 15 41 35 51 52 111 37 126 -9 9 -12 8 -12 -4 0
-13 -38 -33 -46 -25 -2 1 15 39 37 85 29 58 39 91 37 114 -4 37 -6 34 -39 -56
-12 -32 -34 -72 -49 -89 l-27 -31 -12 23 c-10 18 -9 33 7 84 23 72 34 137 23
137 -4 0 -15 -26 -25 -57 -49 -156 -72 -145 -68 32 3 148 -13 177 -23 41 -4
-51 -11 -99 -15 -106 -9 -14 -30 -5 -30 13 0 22 -69 157 -80 157 -14 0 -15 2
30 -114 l39 -104 -29 -166 c-37 -203 -40 -211 -79 -219 -29 -6 -128 7 -140 18
-2 3 6 27 18 53 26 53 41 162 22 162 -26 0 -100 -82 -116 -130 -14 -41 -20
-49 -48 -54 -43 -9 -78 19 -94 74 -21 70 -103 142 -124 109 -5 -8 -9 -46 -9
-85 0 -80 -14 -103 -48 -85 -18 10 -25 21 -53 96 -9 25 -12 27 -18 12 -5 -13
-25 15 -76 105 -68 120 -70 125 -70 193 0 65 3 74 43 138 23 37 38 67 33 67
-18 0 -99 -119 -105 -154 -4 -20 -11 -36 -16 -36 -15 0 -53 137 -48 175 4 35
1 46 -7 23z m1181 -473 c-9 -14 -21 -25 -27 -25 -7 0 -6 8 3 23 8 12 18 29 23
37 6 10 10 11 13 2 2 -7 -3 -24 -12 -37z m-761 -142 c34 -39 32 -53 -11 -53
-33 0 -36 2 -30 23 3 12 6 30 6 40 0 24 7 22 35 -10z m-208 -1043 c-4 -47 -8
-132 -10 -190 -4 -125 -25 -246 -39 -232 -7 7 -6 55 1 144 7 73 12 157 11 186
0 29 4 67 9 85 6 18 14 55 17 82 11 73 17 25 11 -75z"/>
<path d="M2734 4598 c-32 -37 -47 -78 -33 -94 19 -23 2 -64 -26 -64 -55 0 -37
-33 31 -59 36 -14 55 -16 68 -9 9 5 28 7 42 4 27 -7 31 1 10 18 -16 12 -24 65
-13 82 4 7 2 26 -4 43 -6 17 -8 38 -5 47 8 22 -11 54 -33 54 -9 0 -26 -10 -37
-22z"/>
<path d="M3999 4593 c-1 -5 0 -24 1 -43 1 -29 -7 -44 -51 -90 -29 -30 -56 -54
-60 -52 -17 4 -9 -15 14 -36 13 -12 31 -22 41 -22 12 0 16 -5 12 -17 -4 -14 0
-18 19 -18 14 0 25 4 25 8 0 5 5 5 10 2 6 -3 10 -1 10 4 0 6 -4 11 -10 11 -5
0 -10 5 -10 11 0 7 7 8 18 4 9 -4 26 -9 37 -12 16 -4 17 -3 6 5 -12 8 -9 15
17 37 41 34 82 105 81 136 -1 13 2 36 6 52 5 21 4 27 -8 27 -8 0 -17 -7 -21
-15 -4 -10 -19 -15 -49 -15 -27 0 -49 6 -57 15 -13 16 -29 20 -31 8z"/>
<path d="M3302 4553 c-20 -8 -34 -53 -22 -68 6 -7 13 -59 16 -115 5 -113 9
-124 66 -186 38 -41 43 -64 13 -64 -8 0 -21 -10 -29 -22 -19 -27 -21 -45 -3
-30 16 14 77 9 87 -7 6 -10 10 -8 15 8 4 13 2 28 -5 36 -7 8 -10 22 -6 30 5
13 18 6 68 -34 35 -27 79 -65 98 -85 39 -38 80 -41 80 -5 0 12 5 16 14 13 33
-13 25 21 -18 76 -25 33 -59 95 -77 140 -27 70 -42 93 -115 169 -46 49 -84 96
-84 104 0 32 -59 56 -98 40z"/>
<path d="M4830 4372 l-35 -5 30 -7 30 -7 -25 -11 -25 -11 26 0 c25 -1 27 -5
33 -62 9 -74 39 -111 107 -129 24 -6 54 -22 66 -35 19 -20 27 -22 55 -15 37
11 45 18 50 44 2 13 -6 22 -28 30 -17 6 -44 27 -60 46 -15 19 -49 55 -74 80
-26 25 -52 55 -59 68 -12 22 -21 24 -91 14z"/>
<path d="M5504 4281 c-18 -5 -45 -17 -61 -29 l-28 -20 -28 24 c-56 48 -95 14
-42 -36 14 -13 23 -30 21 -36 -3 -7 0 -26 7 -43 9 -25 17 -31 37 -29 20 3 25
-1 24 -19 -1 -26 23 -31 32 -8 5 12 26 15 103 15 88 0 100 2 119 23 l21 22
-24 50 c-35 72 -104 105 -181 86z"/>
<path d="M4205 4136 c-108 -31 -134 -42 -155 -69 -16 -19 -22 -20 -39 -9 -25
15 -31 15 -31 2 0 -6 11 -21 25 -34 19 -17 25 -33 25 -63 0 -46 34 -131 56
-140 9 -3 27 6 43 21 31 30 46 33 55 11 4 -10 -2 -19 -16 -24 -20 -7 -19 -8
11 -14 26 -5 39 -2 65 18 18 14 44 25 57 25 21 -1 22 -2 7 -11 -22 -13 -24
-33 -2 -25 12 4 15 2 11 -9 -5 -12 3 -14 51 -9 204 19 248 20 307 4 128 -34
284 -140 325 -221 24 -46 25 -68 5 -75 -19 -8 -19 -24 0 -24 17 0 35 30 35 61
0 12 -16 51 -36 86 -30 53 -48 72 -102 108 -37 23 -92 55 -122 70 -121 61
-158 91 -191 156 -41 81 -117 162 -168 177 -57 17 -126 13 -216 -12z"/>
<path d="M2931 4111 c-14 -26 -45 -36 -110 -36 -32 0 -56 -5 -58 -12 -2 -6 10
-27 26 -46 43 -48 48 -85 21 -142 -13 -27 -20 -56 -17 -72 3 -14 -2 -46 -11
-71 -12 -37 -13 -56 -3 -107 15 -83 15 -81 -21 -96 -161 -64 -212 -206 -87
-239 56 -15 63 -6 33 45 l-25 44 23 15 c28 18 78 31 78 20 0 -4 -9 -18 -21
-30 -27 -29 -17 -44 27 -44 27 0 34 4 34 20 0 11 5 20 11 20 6 0 27 7 46 16
42 21 58 9 44 -29 -9 -22 -7 -28 9 -37 42 -23 66 -7 51 33 -10 24 -9 25 30 20
36 -5 39 -4 39 19 0 14 7 32 16 39 25 20 13 108 -28 217 -26 68 -34 101 -29
120 5 15 4 39 -2 55 -12 36 7 120 39 169 24 38 33 98 13 98 -6 0 -19 -5 -31
-11 -25 -13 -68 -4 -68 16 0 23 -18 27 -29 6z"/>
<path d="M5645 3884 c-22 -8 -66 -35 -98 -59 -31 -25 -66 -45 -77 -45 -50 0
-87 -27 -113 -81 -49 -105 -43 -166 25 -236 29 -30 30 -34 18 -62 -19 -47 3
-67 36 -34 13 13 19 14 22 5 6 -18 42 -15 42 4 0 10 6 14 15 10 8 -3 15 -2 15
2 0 5 15 25 34 45 31 34 38 37 90 37 31 0 73 7 92 15 33 14 35 13 29 -4 -3
-11 -1 -22 5 -26 19 -12 50 6 56 33 18 80 25 85 147 120 126 35 172 38 232 17
53 -19 71 -20 56 -1 -41 49 -142 59 -279 28 -98 -23 -107 -19 -118 56 -6 48
-33 115 -56 142 -42 51 -98 61 -173 34z m-160 -454 c-20 -22 -31 -20 -22 5 4
8 14 15 23 15 16 0 16 -2 -1 -20z"/>
<path d="M2176 3739 c-18 -21 -26 -42 -26 -70 0 -21 5 -39 11 -39 5 0 7 -4 4
-10 -3 -5 0 -10 9 -10 8 0 16 6 19 13 2 6 8 8 13 4 5 -5 2 -12 -6 -17 -86 -49
-160 -143 -160 -206 0 -16 -9 -65 -21 -109 -11 -44 -16 -82 -11 -87 14 -14 75
12 103 44 24 27 28 28 37 12 7 -13 27 -18 88 -22 75 -4 78 -3 62 13 -9 10 -30
18 -47 17 -26 -1 -31 3 -31 22 0 13 9 31 21 42 35 32 67 96 78 158 17 93 15
105 -26 144 -36 33 -36 35 -17 49 10 8 32 17 47 20 l28 6 -31 18 c-16 10 -30
23 -30 29 0 5 -20 10 -44 10 -37 0 -48 -5 -70 -31z m20 -448 c-10 -16 -36 -13
-36 3 0 17 21 27 34 16 4 -5 5 -13 2 -19z"/>
<path d="M3460 3665 c0 -3 18 -16 40 -30 45 -28 53 -55 17 -55 -24 0 -65 -37
-88 -80 -8 -15 -16 -77 -19 -155 -6 -115 -10 -136 -33 -179 -19 -34 -27 -64
-27 -98 0 -66 17 -59 50 20 23 58 49 86 37 42 -25 -95 88 127 132 259 6 19 11
57 11 86 l0 52 55 35 55 35 -51 27 c-33 18 -58 26 -74 22 -12 -3 -39 1 -59 9
-38 16 -46 18 -46 10z"/>
<path d="M4153 3401 c-33 -36 -37 -38 -68 -28 -25 7 -45 6 -78 -5 -44 -14 -45
-14 -76 14 -17 15 -42 30 -56 34 -34 9 -75 -3 -75 -22 0 -21 28 -74 55 -104
13 -14 35 -62 49 -107 23 -76 24 -85 12 -133 -9 -35 -26 -64 -52 -91 -35 -36
-39 -46 -51 -126 -12 -84 -14 -88 -62 -137 -54 -56 -68 -78 -72 -116 -5 -42
12 -144 27 -167 33 -53 88 -7 83 68 l-3 42 49 13 c28 7 50 13 50 14 1 0 -1
-31 -3 -68 -3 -43 2 -87 12 -120 l15 -52 -38 -79 c-55 -114 -69 -213 -45 -316
l18 -78 -37 -31 c-38 -32 -38 -32 -18 -50 11 -10 38 -20 60 -23 32 -4 46 -1
70 18 16 13 41 32 55 42 20 14 26 27 27 55 0 52 31 126 53 130 10 2 38 -4 61
-13 46 -17 65 -47 79 -128 6 -32 3 -42 -23 -74 -17 -20 -28 -40 -25 -45 3 -4
23 -8 46 -8 31 0 51 8 89 38 58 44 64 58 49 113 -6 23 -11 112 -11 200 1 96
-5 189 -13 236 -31 168 -47 332 -35 355 20 37 2 161 -43 292 -36 107 -39 123
-29 156 6 21 11 69 11 107 0 61 4 74 29 109 39 53 47 86 26 108 -30 29 -74 20
-112 -23z"/>
<path d="M4779 3421 c-22 -18 -22 -20 -6 -26 18 -7 24 -35 8 -35 -12 0 -72
-82 -100 -135 -11 -22 -41 -60 -66 -85 -46 -45 -54 -63 -34 -76 7 -4 39 24 78
65 52 56 72 71 95 71 71 0 124 75 114 164 -4 29 -1 47 6 49 12 5 -37 27 -59
27 -7 0 -23 -9 -36 -19z"/>
<path d="M6283 3422 c-6 -4 -22 -27 -35 -52 -22 -42 -26 -45 -68 -47 -119 -7
-184 -31 -290 -108 -64 -47 -196 -79 -464 -115 -152 -20 -212 -36 -96 -26 l65
6 -58 -21 c-68 -24 -72 -34 -7 -15 44 13 179 37 310 56 36 5 96 13 134 19 56
8 73 7 90 -5 11 -8 27 -14 36 -14 8 0 38 -10 67 -22 44 -20 53 -29 64 -63 8
-22 13 -46 12 -52 0 -9 14 -12 46 -11 36 1 39 2 14 5 -32 4 -32 5 -31 57 1 52
2 53 47 77 54 28 155 145 172 198 14 44 46 81 71 81 26 0 22 15 -8 39 -28 22
-51 26 -71 13z"/>
<path d="M2535 3180 c-3 -5 -16 -10 -29 -10 -58 0 -71 -71 -20 -105 24 -15 32
-16 66 -4 34 11 41 11 49 -2 21 -33 -3 -40 -82 -24 -30 6 -41 3 -58 -14 -11
-11 -23 -32 -27 -47 -10 -40 13 -56 89 -63 15 -2 6 -52 -13 -71 -15 -15 -33
-20 -76 -20 -49 0 -59 -4 -84 -30 -38 -40 -60 -91 -60 -137 0 -63 -16 -74 -90
-59 -39 8 -100 -22 -100 -49 0 -23 16 -18 38 12 l19 26 42 -16 c23 -10 50 -17
60 -17 30 0 53 36 63 96 17 108 48 144 123 144 66 0 111 32 121 87 6 31 3 39
-16 55 -12 10 -35 18 -51 18 -34 0 -43 13 -28 41 9 18 16 20 47 14 21 -4 49
-9 63 -12 21 -4 28 0 38 25 24 57 14 67 -63 67 -54 0 -71 4 -80 18 -14 22 2
51 32 55 18 3 54 32 39 32 -3 0 -9 -4 -12 -10z"/>
<path d="M1786 2958 c-9 -12 -16 -39 -16 -59 0 -64 -5 -68 -55 -51 -34 13 -48
14 -69 4 -31 -14 -26 -35 18 -74 17 -15 43 -39 57 -54 36 -36 68 -30 83 16 10
32 15 35 52 38 58 4 61 26 17 115 -47 94 -60 104 -87 65z"/>
<path d="M6005 2950 c-3 -5 -1 -10 4 -10 6 0 11 5 11 10 0 6 -2 10 -4 10 -3 0
-8 -4 -11 -10z"/>
<path d="M2951 2925 c0 -5 6 -21 14 -35 20 -35 18 -58 -5 -65 -26 -8 -26 -37
0 -60 16 -15 22 -15 35 -5 8 7 15 23 15 36 0 22 4 24 53 24 29 0 61 6 72 13
16 12 11 15 -44 20 -45 4 -66 11 -76 24 -7 10 -18 18 -24 18 -5 0 -17 9 -25
20 -9 11 -15 16 -15 10z"/>
<path d="M4905 2791 c-48 -12 -120 -58 -162 -104 -23 -25 -56 -82 -82 -142
-49 -113 -74 -159 -107 -195 -31 -35 -86 -147 -82 -168 5 -23 37 -18 115 18
68 31 86 55 97 130 4 24 14 52 23 62 14 16 17 16 50 -9 19 -15 43 -43 53 -64
11 -20 33 -51 50 -68 28 -27 38 -31 88 -31 85 0 96 14 28 34 -31 9 -56 20 -56
25 0 5 12 30 27 56 l26 48 21 -29 c57 -80 164 -150 211 -138 28 7 33 22 10 30
-22 9 -18 38 9 71 13 15 31 42 40 60 9 18 22 36 28 40 7 4 30 27 50 50 l37 42
-14 41 c-10 29 -12 48 -5 66 6 14 10 37 10 51 0 20 -4 24 -17 18 -47 -17 -71
-14 -148 21 -161 73 -248 97 -300 85z"/>
<path d="M6375 2746 c-22 -35 -32 -43 -42 -35 -9 8 -22 1 -53 -31 -22 -23 -40
-50 -40 -60 0 -14 -14 -23 -52 -34 -29 -9 -66 -26 -83 -40 l-30 -24 -10 32
c-8 25 -16 32 -41 34 -53 5 -63 -15 -60 -115 3 -81 1 -88 -24 -117 -15 -17
-30 -41 -34 -52 -8 -25 17 -143 46 -221 17 -46 24 -54 63 -69 25 -9 54 -14 66
-11 25 7 48 -4 101 -45 l37 -29 -25 -42 c-13 -23 -23 -55 -23 -72 1 -17 3 -22
6 -12 7 25 25 21 21 -5 -2 -19 -11 -24 -48 -29 -52 -7 -32 -11 57 -13 61 -1
87 9 41 16 -20 3 -23 10 -26 53 -4 54 12 75 56 75 19 0 22 4 17 21 -6 18 -5
19 13 10 31 -17 37 -13 17 9 -18 20 -17 20 9 20 23 0 26 3 21 20 -12 37 19 21
70 -35 26 -30 52 -55 57 -55 4 0 10 11 14 25 3 14 10 22 15 20 11 -8 22 39 16
70 -4 22 -1 25 15 19 16 -5 19 -2 15 13 -3 10 -8 33 -12 51 l-7 32 49 2 c26 0
57 0 68 -2 54 -7 60 -5 77 32 10 20 27 39 38 43 20 6 25 29 14 59 -4 10 -18
16 -40 16 -19 0 -34 5 -34 10 0 6 13 10 29 10 32 0 46 13 56 52 6 23 3 29 -16
36 -15 6 -18 11 -11 16 7 4 12 23 12 43 0 33 -2 35 -26 29 l-25 -7 23 31 c19
26 20 34 10 51 -9 14 -10 25 -2 40 18 33 7 51 -83 135 -37 35 -127 67 -202 72
l-71 4 -29 -46z"/>
<path d="M3100 2548 c0 -53 10 -70 51 -83 46 -16 51 -41 24 -121 -33 -99 -47
-108 -165 -99 -52 4 -135 14 -185 22 -49 9 -149 18 -220 20 l-131 4 -59 -40
c-81 -53 -125 -101 -135 -145 -5 -24 -2 -71 10 -141 21 -121 28 -145 40 -145
9 0 14 13 26 70 7 34 8 34 15 10 18 -63 11 -94 -32 -135 -22 -22 -44 -47 -49
-56 -5 -9 -1 -57 10 -120 10 -57 23 -138 30 -179 7 -41 14 -84 16 -95 5 -32
42 -65 71 -65 l26 0 -21 23 c-12 13 -22 33 -22 45 0 19 4 21 25 16 30 -7 32 6
6 30 -27 24 -41 98 -41 209 l0 92 107 102 c68 64 118 104 137 107 16 3 64 6
108 6 l80 0 -1 -112 c0 -222 7 -358 19 -373 7 -8 23 -15 36 -15 24 0 24 1 8
25 -25 38 -20 185 11 335 22 110 34 151 36 124 0 -5 4 -61 8 -124 6 -80 18
-151 41 -233 30 -110 35 -119 64 -131 38 -16 44 -6 18 36 -37 60 -64 183 -57
252 14 126 36 199 71 239 19 20 42 55 50 77 9 22 34 54 55 71 39 31 79 93 79
123 0 9 16 54 35 100 19 47 35 97 35 111 0 42 16 62 65 81 51 19 65 37 65 83
0 49 -40 39 -113 -25 -26 -24 -47 -34 -70 -34 -38 0 -50 7 -66 38 -14 26 -68
62 -93 62 -14 0 -18 -9 -18 -42z"/>
<path d="M1975 2326 c-18 -18 -25 -33 -20 -44 4 -9 9 -23 12 -29 4 -10 -4 -10
-33 1 -27 9 -40 20 -42 34 -2 12 -10 22 -18 22 -8 0 -13 4 -9 9 11 18 -14 21
-27 4 -7 -10 -20 -19 -28 -21 -22 -5 -60 -31 -60 -42 0 -5 14 -19 30 -32 17
-12 30 -30 30 -41 0 -10 4 -27 10 -37 11 -21 -21 -70 -47 -70 -9 0 -13 -3 -9
-7 4 -5 24 -8 44 -8 26 0 37 -4 37 -15 0 -10 15 -17 45 -22 90 -13 116 -10
149 21 27 25 31 36 31 82 0 41 3 50 12 41 7 -7 15 -12 19 -12 10 0 39 77 39
105 0 41 -40 76 -92 82 -41 5 -50 2 -73 -21z m-105 -242 c0 -8 -5 -12 -10 -9
-6 4 -8 11 -5 16 9 14 15 11 15 -7z"/>
<path d="M400 2110 c0 -15 30 -62 52 -80 18 -15 18 -17 -2 -57 -11 -23 -20
-46 -20 -51 0 -13 50 -101 61 -107 15 -10 10 -22 -11 -28 -11 -3 -20 -10 -20
-15 0 -13 57 -20 140 -18 191 6 178 4 197 32 13 21 14 30 5 45 -7 10 -12 32
-12 49 0 20 -11 43 -36 70 -45 49 -90 64 -150 48 -51 -14 -62 -7 -46 27 7 14
12 41 12 60 0 28 -4 35 -20 35 -23 0 -40 -28 -40 -67 l-1 -28 -13 25 c-15 27
-96 78 -96 60z"/>
<path d="M5711 2035 c6 -82 -1 -124 -27 -154 -14 -17 -34 -31 -45 -31 -18 0
-18 3 6 39 14 21 28 56 31 77 l5 39 -33 -57 c-18 -32 -36 -58 -40 -58 -14 0
-9 30 12 70 11 22 16 40 10 40 -6 0 -16 -11 -22 -25 -14 -32 -28 -15 -28 33 0
67 -17 20 -24 -65 -8 -110 -22 -133 -77 -133 -47 0 -46 -13 -11 120 11 41 17
77 14 80 -2 3 -7 1 -9 -5 -28 -64 -70 -140 -78 -140 -19 0 -16 43 5 85 12 23
20 44 17 46 -2 2 -18 -14 -37 -37 -30 -38 -32 -45 -27 -98 4 -46 1 -65 -19
-101 l-23 -45 0 65 c0 36 7 83 15 105 9 22 18 56 20 75 4 32 2 30 -26 -25 -35
-71 -53 -150 -48 -211 3 -43 3 -44 -28 -44 -20 0 -39 9 -59 29 -32 34 -31 51
4 176 19 68 19 94 1 65 -17 -26 -70 -171 -70 -190 0 -10 4 -30 10 -44 11 -31
1 -34 -35 -10 -29 19 -33 65 -10 129 20 54 19 54 -14 15 l-29 -35 5 30 6 30
-32 -39 c-26 -33 -31 -47 -29 -80 3 -37 8 -44 68 -85 l64 -45 -34 -9 c-19 -5
-66 -17 -105 -27 -38 -10 -82 -21 -97 -24 -15 -3 -34 -13 -42 -22 -15 -14 -15
-18 1 -46 10 -16 32 -36 48 -43 17 -7 58 -40 93 -72 56 -52 63 -63 72 -113 13
-69 66 -151 123 -187 72 -47 187 -135 187 -144 0 -4 -27 -32 -60 -61 -42 -37
-60 -60 -60 -77 0 -26 108 -194 144 -223 12 -10 35 -22 51 -27 17 -5 38 -12
48 -16 10 -4 17 -3 17 4 0 11 -61 76 -95 101 -41 30 -111 142 -100 160 3 4 20
11 38 15 17 4 48 17 67 29 49 32 75 39 88 24 5 -8 11 -82 12 -173 4 -231 6
-220 -36 -245 -42 -27 -38 -35 19 -31 63 3 70 15 78 138 7 92 17 168 35 258 2
11 12 31 23 44 l18 24 184 -22 c247 -30 244 -29 309 -103 78 -88 100 -119 100
-142 0 -12 -25 -71 -57 -133 -48 -93 -63 -114 -93 -128 l-35 -17 25 -10 c24
-9 92 -4 111 8 5 3 7 14 4 24 -4 13 21 73 71 171 66 131 75 155 65 172 -7 10
-11 20 -9 22 8 7 97 -61 102 -78 2 -10 2 -58 -1 -107 -8 -117 -2 -135 54 -170
42 -27 83 -39 83 -25 0 5 -35 59 -67 104 -14 20 -17 46 -15 171 l2 148 -55 26
c-61 31 -95 67 -95 103 0 14 16 51 36 84 30 49 36 65 31 95 -3 20 -13 46 -21
59 -19 28 -156 83 -246 98 -85 14 -361 78 -475 111 -51 15 -115 26 -149 26
-102 0 -209 80 -248 184 l-17 46 44 20 c24 11 52 20 62 20 43 0 94 23 137 61
43 38 52 42 106 43 49 1 64 6 87 27 16 15 45 29 67 32 47 8 120 73 137 124 18
56 5 58 -29 4 -33 -54 -76 -81 -127 -81 -25 0 -25 0 -9 32 19 37 16 150 -5
170 -10 11 -12 7 -10 -17z m-56 -255 c-28 -12 -55 -12 -55 0 0 6 17 10 38 9
30 0 33 -2 17 -9z m-195 -40 c0 -16 -46 -41 -86 -46 l-39 -6 33 31 c31 30 92
44 92 21z"/>
<path d="M1274 1846 c-65 -21 -104 -48 -104 -72 0 -12 19 -38 45 -62 64 -58
60 -90 -4 -36 -39 33 -61 26 -60 -18 0 -18 -1 -42 -3 -52 -2 -16 13 -27 72
-57 41 -21 97 -41 125 -45 43 -6 58 -15 108 -66 59 -58 67 -80 31 -87 -25 -4
-44 -20 -44 -37 0 -18 35 -28 100 -29 302 -4 300 -4 323 -27 12 -13 34 -38 49
-57 23 -30 35 -36 100 -47 111 -20 170 -18 202 7 14 11 26 25 26 30 0 5 -18
29 -40 53 -44 48 -104 78 -192 96 -57 11 -58 12 -72 60 -8 26 -18 74 -21 106
-10 76 -33 121 -94 182 -58 56 -100 72 -196 72 -62 0 -76 4 -150 45 -93 50
-142 60 -201 41z"/>
<path d="M3717 1485 c-58 -22 -92 -50 -126 -103 -28 -43 -31 -57 -31 -123 0
-41 -5 -80 -11 -86 -5 -5 -18 -25 -27 -44 -9 -18 -36 -46 -58 -61 -50 -33 -76
-83 -68 -127 9 -41 32 -61 45 -38 20 36 26 14 21 -88 -6 -127 -1 -135 75 -135
64 0 67 15 9 44 l-39 19 7 59 c9 88 31 121 105 153 61 27 158 103 171 134 24
59 50 30 50 -54 -1 -25 -10 -55 -25 -80 -14 -22 -25 -47 -25 -56 0 -8 28 -45
63 -81 34 -36 74 -79 88 -96 22 -26 34 -32 67 -32 22 0 45 6 52 14 9 12 3 19
-37 40 -52 26 -118 91 -133 130 -11 30 2 86 28 123 11 15 27 45 36 67 15 37
17 38 54 33 20 -4 61 -14 91 -22 l53 -16 -2 -142 c0 -78 2 -164 7 -192 l8 -50
43 -3 c55 -4 68 20 29 54 -24 20 -27 30 -27 85 0 80 18 188 36 217 21 33 37
17 30 -29 -6 -39 -6 -39 55 -76 113 -69 154 -116 173 -198 14 -56 33 -75 76
-75 47 0 49 9 15 54 -14 18 -25 40 -25 49 0 27 -40 88 -111 169 -65 74 -67 78
-56 108 13 33 22 38 31 15 3 -9 23 -24 44 -33 22 -10 50 -31 64 -47 24 -27 27
-28 57 -16 25 11 31 19 31 45 0 24 10 42 40 71 44 43 48 59 25 93 -12 16 -14
34 -9 71 3 28 4 58 0 67 -6 15 -8 15 -30 1 -22 -15 -25 -14 -62 24 -21 22 -48
39 -60 39 -12 0 -24 7 -28 15 -3 8 -12 15 -19 15 -8 0 -32 14 -53 31 -69 55
-93 64 -179 65 -44 1 -174 4 -290 8 -172 5 -217 3 -248 -9z"/>
<path d="M999 1265 c-3 -2 -4 -36 -2 -74 5 -105 -14 -120 -257 -191 -149 -44
-185 -58 -203 -78 -17 -20 -77 -192 -77 -222 0 -47 56 -7 62 45 l3 30 23 -42
c28 -53 28 -64 -3 -93 -14 -13 -25 -32 -25 -42 0 -20 93 -98 118 -98 36 0 142
23 142 31 0 12 -38 31 -49 25 -10 -6 -61 31 -61 44 0 4 23 23 51 40 52 34 99
86 99 112 0 11 57 48 75 48 2 0 6 -44 7 -97 l3 -98 47 -3 c74 -5 120 29 58 43
-35 8 -38 25 -14 104 11 37 29 67 59 98 43 43 65 100 65 169 0 17 7 28 19 31
13 3 21 17 25 41 9 57 11 170 3 178 -4 4 -22 -7 -40 -24 -41 -40 -57 -40 -85
-2 -22 29 -33 36 -43 25z"/>
<path d="M3153 1158 c-6 -7 -13 -30 -16 -50 l-6 -38 64 0 c54 0 66 3 75 20 6
12 8 30 5 41 -6 19 -8 19 -19 4 -11 -15 -13 -14 -24 9 -9 19 -19 26 -41 26
-16 0 -33 -6 -38 -12z"/>
<path d="M1684 1021 c-4 -19 -17 -34 -37 -44 l-32 -16 38 0 c41 -1 47 -13 16
-34 -11 -8 -33 -42 -49 -76 -16 -34 -42 -72 -57 -86 -28 -24 -28 -24 -5 -25
13 0 40 11 60 25 20 14 47 25 59 25 12 0 25 5 28 11 5 7 14 3 26 -10 24 -26
33 -27 18 -3 -9 14 -6 25 15 56 14 21 26 51 26 65 0 97 -90 193 -106 112z"/>
<path d="M2658 961 c-51 -17 -89 -46 -119 -93 -31 -48 -32 -72 -1 -61 13 6 12
1 -6 -21 -25 -32 -26 -43 -11 -83 10 -26 11 -27 24 -10 11 16 13 12 20 -30 7
-51 21 -83 34 -83 10 0 35 58 52 118 9 29 18 42 30 42 10 0 20 -4 23 -9 4 -5
-1 -55 -10 -110 -21 -135 -11 -244 24 -249 15 -2 22 2 22 12 0 21 58 56 92 56
22 0 27 -5 30 -27 3 -25 8 -28 41 -31 36 -3 38 -2 32 19 -7 20 -5 21 16 14 56
-17 89 -18 89 -1 0 21 6 20 44 -9 47 -36 62 -33 69 15 7 54 -9 110 -38 135
-13 11 -33 41 -43 66 -41 95 -102 139 -192 139 -36 0 -36 0 -49 61 -21 103
-96 164 -173 140z"/>
<path d="M2057 891 c-21 -25 -25 -44 -31 -128 -5 -66 -3 -115 5 -148 11 -48
48 -123 75 -155 7 -8 13 -35 12 -58 0 -50 6 -59 49 -68 27 -5 33 -3 46 23 9
16 28 78 43 137 22 92 26 122 21 189 -4 46 -13 87 -21 96 -7 9 -17 33 -20 55
-11 58 -44 86 -105 86 -42 0 -53 -4 -74 -29z"/>
<path d="M1286 519 c-15 -12 -37 -42 -50 -67 -13 -26 -40 -64 -60 -85 -32 -34
-44 -40 -106 -49 -69 -10 -87 -21 -52 -32 27 -9 195 -4 180 5 -14 9 -14 8 25
33 33 20 63 14 92 -19 16 -18 35 -25 88 -30 45 -4 67 -3 67 4 0 6 -7 11 -15
11 -8 0 -15 6 -15 14 0 21 27 38 50 31 16 -5 18 -10 10 -26 -6 -10 -7 -19 -2
-19 19 0 35 32 34 65 -1 28 4 37 34 54 19 12 46 21 59 21 18 0 23 4 19 15 -4
9 0 15 9 15 8 0 17 7 21 15 4 10 -7 21 -34 35 -47 24 -75 25 -123 5 -49 -20
-80 -19 -119 5 -42 26 -79 25 -112 -1z m108 -185 c9 -25 7 -34 -8 -34 -19 0
-28 14 -20 34 8 20 20 20 28 0z"/>
<path d="M3699 504 c-10 -12 -10 -24 -1 -60 17 -61 16 -64 -18 -64 -16 0 -30
-5 -30 -11 0 -6 9 -8 21 -4 33 11 18 -18 -15 -30 -19 -6 -33 -6 -46 3 -25 15
-77 16 -86 0 -9 -15 23 -38 54 -38 19 0 23 -4 19 -20 -6 -23 11 -27 19 -5 4 9
19 15 42 15 23 0 44 8 60 22 13 13 22 17 20 9 -2 -7 2 -15 8 -18 8 -3 9 8 3
37 -12 54 -29 121 -36 143 -8 25 23 22 41 -5 13 -18 16 -19 16 -6 0 15 -35 48
-51 48 -4 0 -12 -7 -20 -16z"/>
<path d="M4441 410 c-12 -11 -27 -17 -32 -14 -5 3 -25 0 -44 -6 -37 -12 -49
-42 -43 -110 3 -31 0 -36 -32 -47 -32 -12 -29 -12 37 -7 51 5 77 3 88 -6 12
-10 18 -9 30 4 15 15 15 16 0 16 -14 0 -14 3 2 24 16 22 47 38 78 40 6 1 11
16 13 34 3 26 -3 39 -28 62 -38 35 -38 35 -69 10z"/>
<path d="M4975 419 c-54 -15 -140 -73 -142 -94 -1 -11 -4 -35 -8 -52 -6 -26
-4 -33 7 -33 8 0 18 3 22 7 14 14 57 13 72 -2 14 -13 14 -15 -2 -15 -14 0 -15
-3 -6 -12 9 -9 17 -7 35 10 17 16 36 22 68 22 32 0 40 -3 29 -10 -13 -8 -13
-10 2 -10 9 0 20 5 23 10 3 6 22 10 41 10 31 0 35 -3 29 -20 -4 -11 -2 -20 4
-20 6 0 12 8 13 18 2 31 4 37 16 60 11 18 10 28 -3 56 -20 42 -40 60 -84 75
-39 13 -73 13 -116 0z"/>
<path d="M4085 221 c3 -6 38 -11 77 -11 39 0 69 2 67 4 -2 2 -37 7 -78 10 -51
5 -71 4 -66 -3z"/>
</g>
</svg>
